<svg width="555" height="212" viewBox="0 0 555 212" fill="none" xmlns="http://www.w3.org/2000/svg">
<g clip-path="url(#clip0_828_5599)">
<path d="M0 70.06C0.54 53.89 2.02 36.94 9.35 22.39C14.88 11.41 24.72 1.23004 37.51 0.0900361C50.59 -1.06996 60.63 9.10004 65.97 20.17C73.29 35.35 74.9 51.47 75.52 68.1C75.63 94.84 75.74 121.58 75.85 148.32C75.39 163.77 74.51 179.47 66.42 192.95C60.48 202.85 49.46 208.36 38.05 208.37C26.67 208.37 15.82 202.82 9.62 193.16C1.56 180.61 0.04 163.75 0 149.17V70.06ZM31.99 157.19C32.01 163.65 33.99 166.79 37.94 166.72C41.89 166.65 43.86 163.43 43.85 156.95C43.77 121.74 43.68 86.53 43.6 51.32C43.58 44.84 41.59 41.5 37.63 41.75C33.67 42.01 31.71 45.57 31.72 52.03C31.81 87.08 31.91 122.14 32 157.19H31.99ZM115.97 22.57C105.75 18.96 95.56 15.28 85.38 11.57C85.79 78.1 86.19 144.62 86.6 211.15H118.4C118.06 184.6 117.72 158.05 117.38 131.5C122.37 132.21 124.87 132.56 129.87 133.23C129.68 121.09 129.49 108.95 129.3 96.82C124.33 95.84 121.85 95.33 116.89 94.28C116.58 70.38 116.28 46.48 115.97 22.57Z" fill="#007AFF"/>
<path d="M138.07 32.08C148.22 35.12 158.78 37.68 169.24 39.42C170.2 82.92 171.16 126.42 172.12 169.93C186.73 170.43 201.29 170.65 215.91 170.52C216.12 181.8 216.33 193.09 216.54 204.37C191.39 204.4 166.25 204.24 141.1 203.98C140.09 146.68 139.08 89.38 138.07 32.08ZM258.82 99.18C263.96 98.25 266.52 97.77 271.63 96.8C271.7 108.94 271.78 121.08 271.85 133.22C266.75 133.88 264.2 134.21 259.08 134.84C259.26 160.28 259.45 185.71 259.63 211.15H227.83C226.95 153.56 226.06 95.96 225.18 38.37C236.51 36.25 247.22 33.57 258.33 30.49C258.5 53.39 258.66 76.29 258.83 99.19L258.82 99.18Z" fill="#007AFF"/>
<path d="M282.419 203.74C282.099 144.31 281.769 84.8801 281.449 25.4501C292.049 22.1701 302.649 18.9301 313.289 15.7901C313.379 34.4901 313.469 53.2001 313.569 71.9001C318.309 70.9301 320.689 70.4501 325.469 69.6801C325.389 50.6801 325.299 31.6801 325.219 12.6701C336.279 10.5601 346.559 9.24008 357.799 8.49008C357.829 73.3501 357.859 138.2 357.899 203.06C332.739 203.13 307.579 203.42 282.419 203.74ZM313.759 110.87C313.849 128.71 313.939 146.55 314.019 164.39C318.759 164.07 321.129 163.9 325.879 163.65C325.799 145.53 325.719 127.4 325.639 109.28C320.869 109.84 318.489 110.18 313.759 110.88V110.87ZM401.379 92.0601C406.469 92.7401 409.009 93.1401 414.049 94.0501L413.879 133C408.829 132.39 406.289 132.12 401.199 131.67C401.079 158.16 400.969 184.66 400.849 211.15H369.049L369.279 6.33008C380.469 7.06008 390.699 8.36008 401.719 10.4601L401.359 92.0601H401.379Z" fill="#007AFF"/>
<path d="M495.64 45.45C495.64 56.5 495.64 67.54 495.63 78.59C481.88 76.19 468.56 72.51 455.21 68.48C455.28 101.77 455.35 135.05 455.42 168.34C469.94 169.65 484.45 170.73 499.01 171.54C499.01 182.54 498.99 193.54 498.99 204.53C473.91 204.3 448.83 203.87 423.74 203.47C423.95 142.23 424.15 80.98 424.36 19.74C448.12 29.47 470.61 39.28 495.65 45.44L495.64 45.45ZM542.35 109.1C547.36 108.77 549.85 108.52 554.78 107.84V140.74C549.8 141.21 547.3 141.38 542.27 141.6C542.21 164.78 542.16 187.96 542.1 211.14H510.3L510.64 45.88C521.34 46.89 531.76 47.75 542.5 46.49L542.35 109.1Z" fill="#007AFF"/>
</g>
<defs>
<clipPath id="clip0_828_5599">
<rect width="554.78" height="211.14" fill="white"/>
</clipPath>
</defs>
</svg>
