<svg width="24" height="24" viewBox="0 0 24 24" fill="none" xmlns="http://www.w3.org/2000/svg">
<rect width="24" height="24" rx="12" fill="#E5E5EA"/>
<g clip-path="url(#clip0_828_5438)">
<path d="M17.8327 11.9998C17.8327 15.2215 15.221 17.8332 11.9993 17.8332C10.2571 17.8332 6.16602 17.8332 6.16602 17.8332C6.16602 17.8332 6.16602 13.4792 6.16602 11.9998C6.16602 8.77817 8.77769 6.1665 11.9993 6.1665C15.221 6.1665 17.8327 8.77817 17.8327 11.9998Z" fill="#1C1B1F"/>
<path fillRule="evenodd" clipRule="evenodd" d="M11.9993 6.604C9.01931 6.604 6.60352 9.0198 6.60352 11.9998V17.3957H11.9993C14.9794 17.3957 17.3952 14.9799 17.3952 11.9998C17.3952 9.0198 14.9794 6.604 11.9993 6.604ZM6.16602 17.8332L5.72852 17.8331V11.9998C5.72852 8.53655 8.53606 5.729 11.9993 5.729C15.4626 5.729 18.2702 8.53655 18.2702 11.9998C18.2702 15.4631 15.4626 18.2707 11.9993 18.2707H6.16606L6.16602 17.8332ZM6.16602 17.8332L6.16606 18.2707C5.92444 18.2707 5.72852 18.0747 5.72852 17.8331L6.16602 17.8332Z" fill="#1C1B1F"/>
<path fillRule="evenodd" clipRule="evenodd" d="M8.64648 10.25C8.64648 10.0084 8.84236 9.8125 9.08398 9.8125H14.334C14.5756 9.8125 14.7715 10.0084 14.7715 10.25C14.7715 10.4916 14.5756 10.6875 14.334 10.6875H9.08398C8.84236 10.6875 8.64648 10.4916 8.64648 10.25Z" fill="#FFFBFF"/>
<path fillRule="evenodd" clipRule="evenodd" d="M8.64648 12.5835C8.64648 12.3419 8.84236 12.146 9.08398 12.146H14.334C14.5756 12.146 14.7715 12.3419 14.7715 12.5835C14.7715 12.8251 14.5756 13.021 14.334 13.021H9.08398C8.84236 13.021 8.64648 12.8251 8.64648 12.5835Z" fill="#FFFBFF"/>
<path fillRule="evenodd" clipRule="evenodd" d="M8.64648 14.9165C8.64648 14.6749 8.84236 14.479 9.08398 14.479H12.0007C12.2423 14.479 12.4382 14.6749 12.4382 14.9165C12.4382 15.1581 12.2423 15.354 12.0007 15.354H9.08398C8.84236 15.354 8.64648 15.1581 8.64648 14.9165Z" fill="#FFFBFF"/>
</g>
<defs>
<clipPath id="clip0_828_5438">
<rect width="14" height="14" fill="white" transform="translate(5 5)"/>
</clipPath>
</defs>
</svg>
