<svg width="24" height="24" viewBox="0 0 24 24" fill="none" xmlns="http://www.w3.org/2000/svg">
<rect width="24" height="24" rx="12" fill="#E5E5EA"/>
<path d="M9.00065 6.6665C6.97561 6.6665 5.33398 8.30814 5.33398 10.3332C5.33398 13.9998 9.66732 17.3332 12.0007 18.1086C14.334 17.3332 18.6673 13.9998 18.6673 10.3332C18.6673 8.30814 17.0257 6.6665 15.0007 6.6665C13.7606 6.6665 12.6642 7.28214 12.0007 8.22444C11.3371 7.28214 10.2408 6.6665 9.00065 6.6665Z" fill="#FF2D55"/>
<path fill-rule="evenodd" clip-rule="evenodd" d="M4.83398 10.3332C4.83398 8.032 6.69946 6.1665 9.00065 6.1665C10.1791 6.1665 11.2432 6.65609 12.0007 7.44164C12.7581 6.65609 13.8222 6.1665 15.0007 6.1665C17.3018 6.1665 19.1673 8.03199 19.1673 10.3332C19.1673 12.3586 17.9785 14.2287 16.5643 15.6569C15.1452 17.09 13.4134 18.166 12.1583 18.5831C12.056 18.6171 11.9453 18.6171 11.843 18.5831C10.5879 18.166 8.85612 17.09 7.43703 15.6569C6.0228 14.2287 4.83398 12.3586 4.83398 10.3332ZM9.00065 7.1665C7.25175 7.1665 5.83398 8.58428 5.83398 10.3332C5.83398 11.9744 6.81184 13.6043 8.14761 14.9533C9.41507 16.2333 10.928 17.1816 12.0006 17.5786C13.0733 17.1816 14.5862 16.2333 15.8537 14.9533C17.1895 13.6043 18.1673 11.9744 18.1673 10.3332C18.1673 8.58428 16.7495 7.1665 15.0007 7.1665C13.9301 7.1665 12.9834 7.69731 12.4095 8.51232C12.3158 8.64531 12.1633 8.72444 12.0007 8.72444C11.838 8.72444 11.6855 8.64531 11.5918 8.51232C11.0179 7.69731 10.0712 7.1665 9.00065 7.1665Z" fill="#FF2D55"/>
</svg>
