<svg width="24" height="24" viewBox="0 0 24 24" fill="none" xmlns="http://www.w3.org/2000/svg">
<g clip-path="url(#clip0_622_7943)">
<path d="M16.2715 22.7693C22.3191 20.3112 25.2289 13.416 22.7707 7.3685C20.3126 1.32097 13.4175 -1.58883 7.36994 0.869275C1.32241 3.32738 -1.58739 10.2226 0.870715 16.2701C3.32882 22.3176 10.224 25.2274 16.2715 22.7693Z" fill="#cccccc"/>
<path style="mix-blend-mode:multiply" d="M12.2712 6.49732L11.3096 7.45898L12.2712 8.42065L13.2329 7.45898L12.2712 6.49732Z" fill="url(#paint0_linear_622_7943)"/>
<path style="mix-blend-mode:multiply" d="M12.4763 6.7107L11.5146 7.67236L13.4168 9.57448L14.3784 8.61282L12.4763 6.7107Z" fill="url(#paint1_linear_622_7943)"/>
<path d="M11.9783 6.21436L11.0166 7.17603L11.9783 8.13769L12.9399 7.17603L11.9783 6.21436Z" fill="url(#paint2_linear_622_7943)"/>
<path style="mix-blend-mode:multiply" d="M17.9783 5.74927L17.0166 6.71094L17.9783 7.6726L18.9399 6.71094L17.9783 5.74927Z" fill="url(#paint3_linear_622_7943)"/>
<path style="mix-blend-mode:multiply" d="M18.1931 5.96265L17.2314 6.92432L19.1336 8.82643L20.0952 7.86477L18.1931 5.96265Z" fill="url(#paint4_linear_622_7943)"/>
<path d="M17.6882 5.45923L16.7266 6.4209L17.6882 7.38256L18.6499 6.4209L17.6882 5.45923Z" fill="url(#paint5_linear_622_7943)"/>
<path style="mix-blend-mode:multiply" d="M16.2997 10.088L15.6562 10.7314L16.2997 11.3749L16.9432 10.7314L16.2997 10.088Z" fill="url(#paint6_linear_622_7943)"/>
<path style="mix-blend-mode:multiply" d="M16.4423 10.244L15.7988 10.8875L17.0716 12.1602L17.7151 11.5168L16.4423 10.244Z" fill="url(#paint7_linear_622_7943)"/>
<path d="M16.1112 9.89804L15.4678 10.5415L16.1112 11.185L16.7547 10.5415L16.1112 9.89804Z" fill="url(#paint8_linear_622_7943)"/>
<g style="mix-blend-mode:multiply">
<path d="M18.1402 13.8501C17.9802 13.7401 17.7702 13.7501 17.6202 13.8701C16.6402 14.6501 15.4602 15.0701 14.2002 15.0701C11.1802 15.0701 8.7202 12.6101 8.7202 9.59012C8.7202 8.33012 9.1302 7.15012 9.9202 6.17012C10.0402 6.02012 10.0502 5.81012 9.9402 5.65012C9.8302 5.49012 9.6302 5.41012 9.4502 5.47012C6.3602 6.34012 4.2002 9.19012 4.2002 12.4001C4.2002 16.3701 7.4302 19.6001 11.4002 19.6001C14.6102 19.6001 17.4602 17.4401 18.3302 14.3501C18.3802 14.1601 18.3102 13.9601 18.1502 13.8601L18.1402 13.8501Z" fill="#DADBDB"/>
</g>
<path d="M17.5601 13.28C17.4001 13.17 17.1901 13.18 17.0401 13.3C16.0601 14.08 14.8801 14.5 13.6201 14.5C10.6001 14.5 8.14012 12.04 8.14012 9.02005C8.14012 7.76005 8.55012 6.58005 9.34012 5.60005C9.46012 5.45005 9.47012 5.24005 9.36012 5.08005C9.25012 4.92005 9.05012 4.84005 8.87012 4.90005C5.78012 5.77005 3.62012 8.62005 3.62012 11.83C3.62012 15.8 6.85012 19.03 10.8201 19.03C14.0301 19.03 16.8801 16.87 17.7501 13.78C17.8001 13.59 17.7301 13.39 17.5701 13.29L17.5601 13.28Z" fill="url(#paint9_linear_622_7943)"/>
</g>
<defs>
<linearGradient id="paint0_linear_622_7943" x1="11.8045" y1="6.97815" x2="12.7662" y2="7.93982" gradientUnits="userSpaceOnUse">
<stop stop-color="white"/>
<stop offset="0.69" stop-color="#D9D9D9"/>
<stop offset="1" stop-color="#C7C8C8"/>
</linearGradient>
<linearGradient id="paint1_linear_622_7943" x1="13.9188" y1="9.10072" x2="12.0167" y2="7.1986" gradientUnits="userSpaceOnUse">
<stop stop-color="white"/>
<stop offset="0.69" stop-color="#D9D9D9"/>
<stop offset="1" stop-color="#C7C8C8"/>
</linearGradient>
<linearGradient id="paint2_linear_622_7943" x1="11.4974" y1="6.68105" x2="12.4591" y2="7.64272" gradientUnits="userSpaceOnUse">
<stop stop-color="#FCCA4F"/>
<stop offset="1" stop-color="#EC7A15"/>
</linearGradient>
<linearGradient id="paint3_linear_622_7943" x1="17.5045" y1="6.22303" x2="18.4662" y2="7.1847" gradientUnits="userSpaceOnUse">
<stop stop-color="white"/>
<stop offset="0.69" stop-color="#D9D9D9"/>
<stop offset="1" stop-color="#C7C8C8"/>
</linearGradient>
<linearGradient id="paint4_linear_622_7943" x1="19.6285" y1="8.3456" x2="17.7264" y2="6.44348" gradientUnits="userSpaceOnUse">
<stop stop-color="white"/>
<stop offset="0.69" stop-color="#D9D9D9"/>
<stop offset="1" stop-color="#C7C8C8"/>
</linearGradient>
<linearGradient id="paint5_linear_622_7943" x1="17.2145" y1="5.93299" x2="18.1761" y2="6.89466" gradientUnits="userSpaceOnUse">
<stop stop-color="#FCCA4F"/>
<stop offset="1" stop-color="#EC7A15"/>
</linearGradient>
<linearGradient id="paint6_linear_622_7943" x1="15.9815" y1="10.4062" x2="16.6179" y2="11.0426" gradientUnits="userSpaceOnUse">
<stop stop-color="white"/>
<stop offset="0.69" stop-color="#D9D9D9"/>
<stop offset="1" stop-color="#C7C8C8"/>
</linearGradient>
<linearGradient id="paint7_linear_622_7943" x1="17.411" y1="11.8491" x2="16.1453" y2="10.5834" gradientUnits="userSpaceOnUse">
<stop stop-color="white"/>
<stop offset="0.69" stop-color="#D9D9D9"/>
<stop offset="1" stop-color="#C7C8C8"/>
</linearGradient>
<linearGradient id="paint8_linear_622_7943" x1="15.7294" y1="10.195" x2="16.3729" y2="10.8385" gradientUnits="userSpaceOnUse">
<stop stop-color="#FCCA4F"/>
<stop offset="1" stop-color="#EC7A15"/>
</linearGradient>
<linearGradient id="paint9_linear_622_7943" x1="4.51012" y1="7.95005" x2="14.6801" y2="18.13" gradientUnits="userSpaceOnUse">
<stop stop-color="#FCCA4F"/>
<stop offset="1" stop-color="#EC7A15"/>
</linearGradient>
<clipPath id="clip0_622_7943">
<rect width="23.63" height="23.63" fill="white"/>
</clipPath>
</defs>
</svg>
