<svg width="24" height="24" viewBox="0 0 24 24" fill="none" xmlns="http://www.w3.org/2000/svg">
<g clip-path="url(#clip0_622_7991)">
<path d="M23.64 11.82C23.64 5.29 18.34 0 11.82 0C5.3 0 0 5.29 0 11.82C0 18.35 5.29 23.64 11.82 23.64C18.35 23.64 23.64 18.35 23.64 11.82Z" fill="#cccccc"/>
<g style="mix-blend-mode:multiply">
<path d="M15.8796 12.3302C15.8796 10.2002 14.1496 8.46021 12.0096 8.46021C9.86965 8.46021 8.13965 10.1902 8.13965 12.3302C8.13965 14.4702 9.86965 16.2002 12.0096 16.2002C14.1496 16.2002 15.8796 14.4702 15.8796 12.3302V12.3302Z" fill="#DADBDB"/>
</g>
<path d="M15.53 11.9801C15.53 9.85011 13.8 8.11011 11.66 8.11011C9.52004 8.11011 7.79004 9.84011 7.79004 11.9801C7.79004 14.1201 9.52004 15.8501 11.66 15.8501C13.8 15.8501 15.53 14.1201 15.53 11.9801V11.9801Z" fill="url(#paint0_linear_622_7991)"/>
<g style="mix-blend-mode:multiply">
<path d="M6.51988 12.22C6.51988 12.49 6.29988 12.71 6.01988 12.71H3.62988C3.35988 12.71 3.12988 12.49 3.12988 12.22C3.12988 11.95 3.34988 11.73 3.62988 11.73H6.01988C6.28988 11.73 6.51988 11.95 6.51988 12.22Z" fill="#DADBDB"/>
<path d="M20.9603 12.22C20.9603 12.49 20.7403 12.71 20.4603 12.71H18.0703C17.8003 12.71 17.5703 12.49 17.5703 12.22C17.5703 11.95 17.7903 11.73 18.0703 11.73H20.4603C20.7303 11.73 20.9603 11.95 20.9603 12.22Z" fill="#DADBDB"/>
<path d="M12.0498 6.69006C11.7798 6.69006 11.5498 6.47006 11.5498 6.19006V3.81006C11.5498 3.54006 11.7698 3.31006 12.0498 3.31006C12.3198 3.31006 12.5398 3.53006 12.5398 3.81006V6.20006C12.5398 6.47006 12.3198 6.70006 12.0498 6.70006V6.69006Z" fill="#DADBDB"/>
<path d="M12.0498 21.13C11.7798 21.13 11.5498 20.91 11.5498 20.64V18.25C11.5498 17.98 11.7698 17.75 12.0498 17.75C12.3198 17.75 12.5398 17.97 12.5398 18.25V20.64C12.5398 20.91 12.3198 21.13 12.0498 21.13Z" fill="#DADBDB"/>
<path d="M8.13992 8.31009C7.94992 8.50009 7.62992 8.50009 7.43992 8.31009L5.74992 6.62009C5.55992 6.43009 5.55992 6.11009 5.74992 5.92009C5.93992 5.73009 6.25992 5.73009 6.44992 5.92009L8.13992 7.61009C8.32992 7.80009 8.32992 8.12009 8.13992 8.31009Z" fill="#DADBDB"/>
<path d="M15.9599 8.31009C15.7699 8.12009 15.7699 7.80009 15.9599 7.61009L17.6499 5.92009C17.8399 5.73009 18.1599 5.73009 18.3499 5.92009C18.5399 6.11009 18.5399 6.43009 18.3499 6.62009L16.6599 8.31009C16.4699 8.50009 16.1499 8.50009 15.9599 8.31009Z" fill="#DADBDB"/>
<path d="M5.74992 18.5201C5.55992 18.3301 5.55992 18.01 5.74992 17.82L7.43992 16.13C7.62992 15.94 7.94992 15.94 8.13992 16.13C8.32992 16.32 8.32992 16.64 8.13992 16.83L6.44992 18.5201C6.25992 18.7101 5.93992 18.7101 5.74992 18.5201V18.5201Z" fill="#DADBDB"/>
</g>
<path d="M6.08996 11.79C6.08996 12.06 5.86996 12.28 5.58996 12.28H3.19996C2.92996 12.28 2.70996 12.06 2.70996 11.79C2.70996 11.52 2.92996 11.29 3.19996 11.29H5.58996C5.85996 11.29 6.08996 11.51 6.08996 11.79Z" fill="url(#paint1_linear_622_7991)"/>
<path d="M20.5204 11.79C20.5204 12.06 20.3004 12.28 20.0304 12.28H17.6404C17.3704 12.28 17.1504 12.06 17.1504 11.79C17.1504 11.52 17.3704 11.29 17.6404 11.29H20.0304C20.3004 11.29 20.5204 11.51 20.5204 11.79Z" fill="url(#paint2_linear_622_7991)"/>
<path d="M11.6101 6.26012C11.3401 6.26012 11.1201 6.04012 11.1201 5.77012V3.37012C11.1201 3.10012 11.3401 2.87012 11.6101 2.87012C11.8801 2.87012 12.1001 3.09012 12.1001 3.37012V5.76012C12.1001 6.03012 11.8801 6.25012 11.6101 6.25012V6.26012Z" fill="url(#paint3_linear_622_7991)"/>
<path d="M11.6101 20.7001C11.3401 20.7001 11.1201 20.4801 11.1201 20.2101V17.8201C11.1201 17.5501 11.3401 17.3201 11.6101 17.3201C11.8801 17.3201 12.1001 17.5401 12.1001 17.8201V20.2101C12.1001 20.4801 11.8801 20.7001 11.6101 20.7001Z" fill="url(#paint4_linear_622_7991)"/>
<path d="M7.71023 7.88016C7.52023 8.07016 7.20023 8.07016 7.01023 7.88016L5.32023 6.19016C5.13023 6.00016 5.13023 5.68016 5.32023 5.49016C5.51023 5.30016 5.83023 5.30016 6.02023 5.49016L7.71023 7.18016C7.90023 7.37016 7.90023 7.69016 7.71023 7.88016V7.88016Z" fill="url(#paint5_linear_622_7991)"/>
<g style="mix-blend-mode:multiply">
<path d="M18.3704 18.5501C18.1804 18.7401 17.8604 18.7401 17.6704 18.5501L15.9804 16.8601C15.7904 16.6701 15.7904 16.3501 15.9804 16.1601C16.1704 15.9701 16.4904 15.9701 16.6804 16.1601L18.3704 17.8501C18.5604 18.0401 18.5604 18.3601 18.3704 18.5501V18.5501Z" fill="#DADBDB"/>
</g>
<path d="M17.9397 18.1101C17.7497 18.3001 17.4297 18.3001 17.2397 18.1101L15.5497 16.4201C15.3597 16.2301 15.3597 15.9101 15.5497 15.7201C15.7397 15.5301 16.0597 15.5301 16.2497 15.7201L17.9397 17.4101C18.1297 17.6001 18.1297 17.9201 17.9397 18.1101V18.1101Z" fill="url(#paint6_linear_622_7991)"/>
<path d="M15.5195 7.88016C15.3295 7.69016 15.3295 7.37016 15.5195 7.18016L17.2095 5.49016C17.3995 5.30016 17.7195 5.30016 17.9095 5.49016C18.0995 5.68016 18.0995 6.00016 17.9095 6.19016L16.2195 7.88016C16.0295 8.07016 15.7095 8.07016 15.5195 7.88016V7.88016Z" fill="url(#paint7_linear_622_7991)"/>
<path d="M5.30949 18.0901C5.11949 17.9001 5.11949 17.5801 5.30949 17.3901L6.99949 15.7001C7.18949 15.5101 7.50949 15.5101 7.69949 15.7001C7.88949 15.8901 7.88949 16.2101 7.69949 16.4001L6.00949 18.0901C5.81949 18.2801 5.49949 18.2801 5.30949 18.0901V18.0901Z" fill="url(#paint8_linear_622_7991)"/>
</g>
<defs>
<linearGradient id="paint0_linear_622_7991" x1="8.93004" y1="9.24011" x2="14.4" y2="14.7101" gradientUnits="userSpaceOnUse">
<stop stop-color="#FCCA4F"/>
<stop offset="1" stop-color="#EC7A15"/>
</linearGradient>
<linearGradient id="paint1_linear_622_7991" x1="3.44996" y1="10.84" x2="5.33996" y2="12.74" gradientUnits="userSpaceOnUse">
<stop stop-color="#FCCA4F"/>
<stop offset="1" stop-color="#EC7A15"/>
</linearGradient>
<linearGradient id="paint2_linear_622_7991" x1="17.8904" y1="10.84" x2="19.7804" y2="12.74" gradientUnits="userSpaceOnUse">
<stop stop-color="#FCCA4F"/>
<stop offset="1" stop-color="#EC7A15"/>
</linearGradient>
<linearGradient id="paint3_linear_622_7991" x1="10.6601" y1="3.62012" x2="12.5601" y2="5.52012" gradientUnits="userSpaceOnUse">
<stop stop-color="#FCCA4F"/>
<stop offset="1" stop-color="#EC7A15"/>
</linearGradient>
<linearGradient id="paint4_linear_622_7991" x1="10.6601" y1="18.0601" x2="12.5601" y2="19.9601" gradientUnits="userSpaceOnUse">
<stop stop-color="#FCCA4F"/>
<stop offset="1" stop-color="#EC7A15"/>
</linearGradient>
<linearGradient id="paint5_linear_622_7991" x1="5.3246" y1="5.4798" x2="7.71462" y2="7.86982" gradientUnits="userSpaceOnUse">
<stop stop-color="#FCCA4F"/>
<stop offset="1" stop-color="#EC7A15"/>
</linearGradient>
<linearGradient id="paint6_linear_622_7991" x1="15.5559" y1="15.7116" x2="17.9459" y2="18.1016" gradientUnits="userSpaceOnUse">
<stop stop-color="#FCCA4F"/>
<stop offset="1" stop-color="#EC7A15"/>
</linearGradient>
<linearGradient id="paint7_linear_622_7991" x1="16.4051" y1="6.32353" x2="17.1052" y2="7.02357" gradientUnits="userSpaceOnUse">
<stop stop-color="#FCCA4F"/>
<stop offset="1" stop-color="#EC7A15"/>
</linearGradient>
<linearGradient id="paint8_linear_622_7991" x1="6.19454" y1="16.5341" x2="6.89458" y2="17.2341" gradientUnits="userSpaceOnUse">
<stop stop-color="#FCCA4F"/>
<stop offset="1" stop-color="#EC7A15"/>
</linearGradient>
<clipPath id="clip0_622_7991">
<rect width="23.64" height="23.64" fill="white"/>
</clipPath>
</defs>
</svg>
