<svg width="24" height="24" viewBox="0 0 24 24" fill="none" xmlns="http://www.w3.org/2000/svg">
<g clip-path="url(#clip0_622_8044)">
<path d="M23.64 11.82C23.64 5.29 18.34 0 11.82 0C5.3 0 0 5.29 0 11.82C0 18.35 5.29 23.64 11.82 23.64C18.35 23.64 23.64 18.35 23.64 11.82Z" fill="#cccccc"/>
<g style="mix-blend-mode:multiply">
<path d="M9.1402 10.05C9.1402 10.05 9.0902 10.05 9.0602 10.05C9.0002 9.05 8.1702 8.25 7.1502 8.25C6.1302 8.25 5.2302 9.11 5.2302 10.17C5.2302 10.23 5.2302 10.29 5.2302 10.35C5.0802 10.31 4.9202 10.29 4.7502 10.29C3.7602 10.29 2.9502 11.1 2.9502 12.09C2.9502 13.08 3.7502 13.89 4.7502 13.89H9.1302C10.1902 13.89 11.0502 13.03 11.0502 11.97C11.0502 10.91 10.1902 10.06 9.1302 10.06L9.1402 10.05Z" fill="#DADBDB"/>
</g>
<path d="M8.89996 9.82002C8.89996 9.82002 8.84996 9.82002 8.81996 9.82002C8.75996 8.82002 7.92996 8.02002 6.90996 8.02002C5.88996 8.02002 4.98996 8.88002 4.98996 9.94002C4.98996 10 4.98996 10.06 4.98996 10.12C4.83996 10.08 4.67996 10.06 4.50996 10.06C3.51996 10.06 2.70996 10.86 2.70996 11.86C2.70996 12.86 3.50996 13.66 4.50996 13.66H8.88996C9.94996 13.66 10.81 12.8 10.81 11.74C10.81 10.68 9.94996 9.82002 8.88996 9.82002H8.89996Z" fill="url(#paint0_linear_622_8044)"/>
<path d="M14.91 8.55022C14.91 6.43022 13.2 4.72021 11.08 4.72021C8.96 4.72021 7.25 6.44022 7.25 8.55022C7.25 10.6602 8.97 12.3802 11.08 12.3802C13.19 12.3802 14.91 10.6702 14.91 8.55022Z" fill="#9D9E9E"/>
<path style="mix-blend-mode:multiply" d="M13.643 5.69562L8.22656 11.1121L12.0944 14.9799L17.5109 9.5635L13.643 5.69562Z" fill="url(#paint1_linear_622_8044)"/>
<path d="M14.5604 8.20012C14.5604 6.08012 12.8504 4.37012 10.7304 4.37012C8.61039 4.37012 6.90039 6.08012 6.90039 8.20012C6.90039 10.3201 8.61039 12.0301 10.7304 12.0301C12.8504 12.0301 14.5604 10.3201 14.5604 8.20012Z" fill="url(#paint2_linear_622_8044)"/>
<g style="mix-blend-mode:multiply">
<path d="M18.2502 10.89C18.2502 10.89 18.1602 10.89 18.1202 10.89C18.0302 9.29002 16.7002 8.02002 15.0702 8.02002C13.4402 8.02002 12.0202 9.39002 12.0202 11.07C12.0202 11.17 12.0202 11.26 12.0302 11.36C11.7902 11.29 11.5302 11.26 11.2702 11.26C9.69016 11.26 8.41016 12.54 8.41016 14.12C8.41016 15.7 9.69016 16.99 11.2702 16.99H18.2502C19.9402 16.99 21.3002 15.62 21.3002 13.94C21.3002 12.26 19.9302 10.89 18.2502 10.89V10.89Z" fill="#DADBDB"/>
</g>
<path d="M17.8703 10.5199C17.8703 10.5199 17.7803 10.5199 17.7403 10.5199C17.6503 8.9199 16.3203 7.6499 14.6903 7.6499C13.0603 7.6499 11.6403 9.0199 11.6403 10.6999C11.6403 10.7999 11.6403 10.8899 11.6503 10.9899C11.4103 10.9199 11.1503 10.8899 10.8903 10.8899C9.31027 10.8899 8.03027 12.1699 8.03027 13.7499C8.03027 15.3299 9.31027 16.6199 10.8903 16.6199H17.8703C19.5603 16.6199 20.9203 15.2499 20.9203 13.5699C20.9203 11.8899 19.5503 10.5199 17.8703 10.5199V10.5199Z" fill="url(#paint3_linear_622_8044)"/>
</g>
<defs>
<linearGradient id="paint0_linear_622_8044" x1="4.40996" y1="9.41002" x2="9.16996" y2="14.17" gradientUnits="userSpaceOnUse">
<stop stop-color="white"/>
<stop offset="0.26" stop-color="#FAFAFA"/>
<stop offset="0.53" stop-color="#EEEEEE"/>
<stop offset="0.81" stop-color="#D9DADA"/>
<stop offset="1" stop-color="#C7C8C8"/>
</linearGradient>
<linearGradient id="paint1_linear_622_8044" x1="85.5811" y1="-4.53619" x2="90.7302" y2="-0.630396" gradientUnits="userSpaceOnUse">
<stop stop-color="#C7C8C8"/>
<stop offset="1" stop-color="#DADBDB"/>
</linearGradient>
<linearGradient id="paint2_linear_622_8044" x1="8.02039" y1="5.49012" x2="13.4404" y2="10.9101" gradientUnits="userSpaceOnUse">
<stop stop-color="#FCCA4F"/>
<stop offset="1" stop-color="#EC7A15"/>
</linearGradient>
<linearGradient id="paint3_linear_622_8044" x1="10.7203" y1="9.8699" x2="18.3003" y2="17.4499" gradientUnits="userSpaceOnUse">
<stop stop-color="white"/>
<stop offset="0.26" stop-color="#FAFAFA"/>
<stop offset="0.53" stop-color="#EEEEEE"/>
<stop offset="0.81" stop-color="#D9DADA"/>
<stop offset="1" stop-color="#C7C8C8"/>
</linearGradient>
<clipPath id="clip0_622_8044">
<rect width="23.64" height="23.64" fill="white"/>
</clipPath>
</defs>
</svg>
