<svg width="24" height="24" viewBox="0 0 24 24" fill="none" xmlns="http://www.w3.org/2000/svg">
<g clip-path="url(#clip0_622_8119)">
<path d="M21.0756 19.1642C25.1331 14.0504 24.2768 6.61551 19.163 2.55797C14.0492 -1.49956 6.61431 -0.643262 2.55678 4.47057C-1.50076 9.5844 -0.64446 17.0193 4.46937 21.0768C9.5832 25.1343 17.0181 24.278 21.0756 19.1642Z" fill="#cccccc"/>
<g style="mix-blend-mode:multiply">
<path d="M19.9598 9.11C19.8498 9.04 19.7198 9.05 19.6198 9.13C18.9798 9.64 18.2098 9.91 17.3798 9.91C15.3998 9.91 13.7998 8.3 13.7998 6.33C13.7998 5.51 14.0698 4.74 14.5798 4.09C14.6598 3.99 14.6698 3.85 14.5998 3.75C14.5298 3.64 14.3998 3.6 14.2798 3.63C12.2598 4.2 10.8398 6.06 10.8398 8.16C10.8398 10.76 12.9498 12.87 15.5498 12.87C17.6498 12.87 19.5198 11.46 20.0798 9.43C20.1098 9.31 20.0698 9.18 19.9598 9.11V9.11Z" fill="#DADBDB"/>
</g>
<path d="M19.5897 8.73989C19.4797 8.66989 19.3497 8.67989 19.2497 8.75989C18.6097 9.26989 17.8397 9.53989 17.0097 9.53989C15.0297 9.53989 13.4297 7.92989 13.4297 5.95989C13.4297 5.13989 13.6997 4.36989 14.2097 3.71989C14.2897 3.61989 14.2997 3.47989 14.2297 3.37989C14.1597 3.26989 14.0297 3.22989 13.9097 3.25989C11.8897 3.82989 10.4697 5.68989 10.4697 7.78989C10.4697 10.3899 12.5797 12.4999 15.1797 12.4999C17.2797 12.4999 19.1497 11.0899 19.7097 9.05989C19.7397 8.93989 19.6997 8.80989 19.5897 8.73989V8.73989Z" fill="url(#paint0_linear_622_8119)"/>
<g style="mix-blend-mode:multiply">
<path d="M13.3796 10.3201C13.3796 10.3201 13.2996 10.3201 13.2596 10.3201C13.1696 8.81011 11.9196 7.61011 10.3896 7.61011C8.85961 7.61011 7.50961 8.90011 7.50961 10.4901C7.50961 10.5801 7.50961 10.6701 7.51961 10.7601C7.28961 10.7001 7.04961 10.6601 6.79961 10.6601C5.30961 10.6601 4.09961 11.8701 4.09961 13.3601C4.09961 14.8501 5.30961 16.0601 6.79961 16.0601H13.3796C14.9696 16.0601 16.2596 14.7701 16.2596 13.1801C16.2596 11.5901 14.9696 10.3001 13.3796 10.3001V10.3201Z" fill="#DADBDB"/>
</g>
<path d="M13.0202 9.97001C13.0202 9.97001 12.9402 9.97001 12.9002 9.97001C12.8102 8.46001 11.5602 7.26001 10.0302 7.26001C8.50023 7.26001 7.15023 8.55001 7.15023 10.14C7.15023 10.23 7.15023 10.32 7.16023 10.41C6.93023 10.35 6.69023 10.31 6.44023 10.31C4.95023 10.31 3.74023 11.52 3.74023 13.01C3.74023 14.5 4.95023 15.71 6.44023 15.71H13.0202C14.6102 15.71 15.9002 14.42 15.9002 12.83C15.9002 11.24 14.6102 9.95001 13.0202 9.95001V9.97001Z" fill="url(#paint1_linear_622_8119)"/>
<path style="mix-blend-mode:multiply" d="M9.45949 11.6799L11.7795 13.9999L9.88949 15.2899L8.97949 14.3799L9.45949 11.6799Z" fill="url(#paint2_linear_622_8119)"/>
<path style="mix-blend-mode:multiply" d="M7.10027 13.1799L9.17027 15.2499L7.85027 16.5699L6.03027 14.7499L7.16027 14.2099L7.10027 13.1799Z" fill="url(#paint3_linear_622_8119)"/>
<g style="mix-blend-mode:multiply">
<path d="M12.8199 17.3899C12.7999 17.3099 12.7499 17.2399 12.6799 17.1999L12.0699 16.8499H12.3599C12.5099 16.8499 12.6299 16.7299 12.6299 16.5799C12.6299 16.4299 12.5099 16.3099 12.3599 16.3099H11.2399C11.2399 16.3099 11.1899 16.3099 11.1599 16.3199L9.99989 15.6499L11.1599 14.9799C11.1599 14.9799 11.2099 14.9899 11.2399 14.9899H12.3599C12.5099 14.9899 12.6299 14.8699 12.6299 14.7199C12.6299 14.5699 12.5099 14.4499 12.3599 14.4499H12.0699L12.6799 14.0999C12.8299 14.0099 12.8799 13.8299 12.7899 13.6799C12.7299 13.5799 12.6299 13.5299 12.5199 13.5299C12.4699 13.5299 12.4099 13.5399 12.3699 13.5699L11.7599 13.9199L11.9099 13.6699C11.9499 13.6099 11.9599 13.5399 11.9399 13.4699C11.9199 13.3999 11.8799 13.3399 11.8099 13.3099C11.7699 13.2899 11.7199 13.2699 11.6799 13.2699C11.5799 13.2699 11.4999 13.3199 11.4499 13.3999L10.8899 14.3699C10.8899 14.3699 10.8699 14.4199 10.8599 14.4399L9.69989 15.1099V13.7699C9.69989 13.7699 9.73989 13.7299 9.74989 13.7099L10.3099 12.7399C10.3799 12.6099 10.3399 12.4499 10.2099 12.3699C10.1699 12.3499 10.1199 12.3299 10.0799 12.3299C9.97989 12.3299 9.89989 12.3799 9.84989 12.4599L9.69989 12.7099V11.9999C9.69989 11.8299 9.55989 11.6899 9.38989 11.6899C9.21989 11.6899 9.07989 11.8299 9.07989 11.9999V12.7099L8.92989 12.4599C8.87989 12.3799 8.78989 12.3299 8.69989 12.3299C8.64989 12.3299 8.60989 12.3399 8.56989 12.3699C8.43989 12.4399 8.39989 12.6099 8.46989 12.7399L9.02989 13.7099C9.02989 13.7099 9.05989 13.7499 9.07989 13.7699V15.1099L7.91989 14.4399C7.91989 14.4399 7.89989 14.3899 7.88989 14.3699L7.32989 13.3999C7.27989 13.3199 7.18989 13.2699 7.09989 13.2699C7.04989 13.2699 7.00989 13.2799 6.96989 13.3099C6.90989 13.3499 6.85989 13.3999 6.83989 13.4699C6.81989 13.5399 6.83989 13.6099 6.86989 13.6699L7.01989 13.9199L6.40989 13.5699C6.40989 13.5699 6.30989 13.5299 6.25989 13.5299C6.14989 13.5299 6.04989 13.5899 5.98989 13.6799C5.89989 13.8299 5.95989 14.0199 6.09989 14.0999L6.70989 14.4499H6.41989C6.26989 14.4499 6.14989 14.5699 6.14989 14.7199C6.14989 14.8699 6.26989 14.9899 6.41989 14.9899H7.54989C7.54989 14.9899 7.59989 14.9899 7.62989 14.9799L8.78989 15.6499L7.62989 16.3199C7.62989 16.3199 7.57989 16.3099 7.54989 16.3099H6.41989C6.26989 16.3099 6.14989 16.4299 6.14989 16.5799C6.14989 16.7299 6.26989 16.8499 6.41989 16.8499H6.70989L6.09989 17.1999C6.02989 17.2399 5.97989 17.3099 5.95989 17.3899C5.93989 17.4699 5.94989 17.5499 5.98989 17.6299C6.04989 17.7299 6.14989 17.7799 6.25989 17.7799C6.30989 17.7799 6.36989 17.7699 6.40989 17.7399L7.01989 17.3899L6.86989 17.6399C6.79989 17.7699 6.83989 17.9299 6.96989 18.0099C7.00989 18.0299 7.05989 18.0499 7.09989 18.0499C7.19989 18.0499 7.27989 17.9999 7.32989 17.9199L7.88989 16.9499C7.88989 16.9499 7.90989 16.8999 7.91989 16.8799L9.07989 16.2099V17.5499C9.07989 17.5499 9.03989 17.5899 9.02989 17.6099L8.46989 18.5799C8.39989 18.7099 8.43989 18.8699 8.56989 18.9499C8.60989 18.9699 8.65989 18.9899 8.69989 18.9899C8.79989 18.9899 8.87989 18.9399 8.92989 18.8599L9.07989 18.6099V19.3199C9.07989 19.4899 9.21989 19.6299 9.38989 19.6299C9.55989 19.6299 9.69989 19.4899 9.69989 19.3199V18.6099L9.84989 18.8599C9.89989 18.9399 9.98989 18.9899 10.0799 18.9899C10.1299 18.9899 10.1699 18.9799 10.2099 18.9499C10.3399 18.8799 10.3799 18.7099 10.3099 18.5799L9.74989 17.6099C9.74989 17.6099 9.71989 17.5699 9.69989 17.5499V16.2099L10.8599 16.8799C10.8599 16.8799 10.8799 16.9299 10.8899 16.9499L11.4499 17.9199C11.4999 17.9999 11.5899 18.0499 11.6799 18.0499C11.7299 18.0499 11.7699 18.0399 11.8099 18.0099C11.8699 17.9699 11.9199 17.9199 11.9399 17.8499C11.9599 17.7799 11.9399 17.7099 11.9099 17.6499L11.7599 17.3999L12.3699 17.7499C12.3699 17.7499 12.4699 17.7899 12.5199 17.7899C12.6299 17.7899 12.7299 17.7299 12.7899 17.6399C12.8299 17.5699 12.8399 17.4799 12.8199 17.3999V17.3899Z" fill="#DADBDB"/>
</g>
<path d="M12.6802 17.25C12.6602 17.17 12.6102 17.1 12.5402 17.06L11.9302 16.71H12.2202C12.3702 16.71 12.4902 16.59 12.4902 16.44C12.4902 16.29 12.3702 16.17 12.2202 16.17H11.1002C11.1002 16.17 11.0502 16.17 11.0202 16.18L9.86024 15.51L11.0202 14.84C11.0202 14.84 11.0702 14.85 11.1002 14.85H12.2202C12.3702 14.85 12.4902 14.73 12.4902 14.58C12.4902 14.43 12.3702 14.31 12.2202 14.31H11.9302L12.5402 13.96C12.6902 13.87 12.7402 13.69 12.6502 13.54C12.5902 13.44 12.4902 13.39 12.3802 13.39C12.3302 13.39 12.2702 13.4 12.2302 13.43L11.6202 13.78L11.7702 13.53C11.8102 13.47 11.8202 13.4 11.8002 13.33C11.7802 13.26 11.7402 13.2 11.6702 13.17C11.6302 13.15 11.5802 13.13 11.5402 13.13C11.4402 13.13 11.3602 13.18 11.3102 13.26L10.7502 14.23C10.7502 14.23 10.7302 14.28 10.7202 14.3L9.56024 14.97V13.63C9.56024 13.63 9.60024 13.59 9.61024 13.57L10.1702 12.6C10.2402 12.47 10.2002 12.31 10.0702 12.23C10.0302 12.21 9.98024 12.19 9.94024 12.19C9.84024 12.19 9.76024 12.24 9.71024 12.32L9.56024 12.57V11.86C9.56024 11.69 9.42024 11.55 9.25024 11.55C9.08024 11.55 8.94024 11.69 8.94024 11.86V12.57L8.79024 12.32C8.74024 12.24 8.65024 12.19 8.56024 12.19C8.51024 12.19 8.47024 12.2 8.43024 12.23C8.30024 12.3 8.26024 12.47 8.33024 12.6L8.89024 13.57C8.89024 13.57 8.92024 13.61 8.94024 13.63V14.97L7.78024 14.3C7.78024 14.3 7.76024 14.25 7.75024 14.23L7.19024 13.26C7.14024 13.18 7.05024 13.13 6.96024 13.13C6.91024 13.13 6.87024 13.14 6.83024 13.17C6.77024 13.21 6.72024 13.26 6.70024 13.33C6.68024 13.4 6.70024 13.47 6.73024 13.53L6.88024 13.78L6.27024 13.43C6.27024 13.43 6.17024 13.39 6.12024 13.39C6.01024 13.39 5.91024 13.45 5.85024 13.54C5.76024 13.69 5.82024 13.88 5.96024 13.96L6.57024 14.31H6.28024C6.13024 14.31 6.01024 14.43 6.01024 14.58C6.01024 14.73 6.13024 14.85 6.28024 14.85H7.41024C7.41024 14.85 7.46024 14.85 7.49024 14.84L8.65024 15.51L7.49024 16.18C7.49024 16.18 7.44024 16.17 7.41024 16.17H6.29024C6.14024 16.17 6.02024 16.29 6.02024 16.44C6.02024 16.59 6.14024 16.71 6.29024 16.71H6.58024L5.97024 17.06C5.90024 17.1 5.85024 17.17 5.83024 17.25C5.81024 17.33 5.82024 17.41 5.86024 17.48C5.92024 17.58 6.02024 17.63 6.13024 17.63C6.18024 17.63 6.24024 17.62 6.28024 17.59L6.89024 17.24L6.74024 17.49C6.67024 17.62 6.71024 17.78 6.84024 17.86C6.88024 17.88 6.93024 17.9 6.97024 17.9C7.07024 17.9 7.15024 17.85 7.20024 17.77L7.76024 16.8C7.76024 16.8 7.78024 16.75 7.79024 16.73L8.95024 16.06V17.4C8.95024 17.4 8.91024 17.44 8.90024 17.46L8.34024 18.43C8.27024 18.56 8.31024 18.72 8.44024 18.8C8.48024 18.82 8.53024 18.84 8.57024 18.84C8.67024 18.84 8.75024 18.79 8.80024 18.71L8.95024 18.46V19.17C8.95024 19.34 9.09024 19.48 9.26024 19.48C9.43024 19.48 9.57024 19.34 9.57024 19.17V18.46L9.72024 18.71C9.77024 18.79 9.86024 18.84 9.95024 18.84C10.0002 18.84 10.0402 18.83 10.0802 18.8C10.2102 18.73 10.2502 18.56 10.1802 18.43L9.62024 17.46C9.62024 17.46 9.59024 17.42 9.57024 17.4V16.06L10.7302 16.73C10.7302 16.73 10.7502 16.78 10.7602 16.8L11.3202 17.77C11.3702 17.85 11.4602 17.9 11.5502 17.9C11.6002 17.9 11.6402 17.89 11.6802 17.86C11.7402 17.82 11.7902 17.77 11.8102 17.7C11.8302 17.63 11.8102 17.56 11.7802 17.5L11.6302 17.25L12.2402 17.6C12.2402 17.6 12.3402 17.64 12.3902 17.64C12.5002 17.64 12.6002 17.58 12.6602 17.49C12.7002 17.42 12.7102 17.33 12.6902 17.26L12.6802 17.25Z" fill="url(#paint4_linear_622_8119)"/>
<g style="mix-blend-mode:multiply">
<path d="M13.1101 19.8602C13.1101 19.5102 12.8201 19.2202 12.4701 19.2202C12.1201 19.2202 11.8301 19.5102 11.8301 19.8602C11.8301 20.2102 12.1201 20.5002 12.4701 20.5002C12.8201 20.5002 13.1101 20.2102 13.1101 19.8602Z" fill="#DADBDB"/>
</g>
<path d="M13.0202 19.7601C13.0202 19.4101 12.7302 19.1201 12.3802 19.1201C12.0302 19.1201 11.7402 19.4101 11.7402 19.7601C11.7402 20.1101 12.0302 20.4001 12.3802 20.4001C12.7302 20.4001 13.0202 20.1101 13.0202 19.7601Z" fill="url(#paint5_linear_622_8119)"/>
<g style="mix-blend-mode:multiply">
<path d="M15.5099 17.3799C15.5099 16.9999 15.1999 16.6899 14.8199 16.6899C14.4399 16.6899 14.1299 16.9999 14.1299 17.3799C14.1299 17.7599 14.4399 18.0699 14.8199 18.0699C15.1999 18.0699 15.5099 17.7599 15.5099 17.3799Z" fill="#DADBDB"/>
</g>
<path d="M15.3995 17.2801C15.3995 16.9001 15.0895 16.5901 14.7095 16.5901C14.3295 16.5901 14.0195 16.9001 14.0195 17.2801C14.0195 17.6601 14.3295 17.9701 14.7095 17.9701C15.0895 17.9701 15.3995 17.6601 15.3995 17.2801Z" fill="url(#paint6_linear_622_8119)"/>
<g style="mix-blend-mode:multiply">
<path d="M7.62063 19.0901C7.62063 18.8201 7.40063 18.6001 7.13063 18.6001C6.86063 18.6001 6.64062 18.8201 6.64062 19.0901C6.64062 19.3601 6.86063 19.5801 7.13063 19.5801C7.40063 19.5801 7.62063 19.3601 7.62063 19.0901Z" fill="#DADBDB"/>
</g>
<path d="M7.55031 19.02C7.55031 18.75 7.33031 18.53 7.06031 18.53C6.79031 18.53 6.57031 18.75 6.57031 19.02C6.57031 19.29 6.79031 19.51 7.06031 19.51C7.33031 19.51 7.55031 19.29 7.55031 19.02Z" fill="url(#paint7_linear_622_8119)"/>
<g style="mix-blend-mode:multiply">
<path d="M15.4898 19.52C15.4898 19.25 15.2698 19.03 14.9998 19.03C14.7298 19.03 14.5098 19.25 14.5098 19.52C14.5098 19.79 14.7298 20.01 14.9998 20.01C15.2698 20.01 15.4898 19.79 15.4898 19.52Z" fill="#DADBDB"/>
</g>
<path d="M15.4097 19.45C15.4097 19.18 15.1897 18.96 14.9197 18.96C14.6497 18.96 14.4297 19.18 14.4297 19.45C14.4297 19.72 14.6497 19.94 14.9197 19.94C15.1897 19.94 15.4097 19.72 15.4097 19.45Z" fill="url(#paint8_linear_622_8119)"/>
</g>
<defs>
<linearGradient id="paint0_linear_622_8119" x1="11.0497" y1="5.25989" x2="17.7097" y2="11.9099" gradientUnits="userSpaceOnUse">
<stop stop-color="#FCCA4F"/>
<stop offset="1" stop-color="#EC7A15"/>
</linearGradient>
<linearGradient id="paint1_linear_622_8119" x1="6.28023" y1="9.36001" x2="13.4302" y2="16.51" gradientUnits="userSpaceOnUse">
<stop stop-color="white"/>
<stop offset="0.26" stop-color="#FAFAFA"/>
<stop offset="0.53" stop-color="#EEEEEE"/>
<stop offset="0.81" stop-color="#D9DADA"/>
<stop offset="1" stop-color="#C7C8C8"/>
</linearGradient>
<linearGradient id="paint2_linear_622_8119" x1="23.4221" y1="29.2787" x2="21.0844" y2="26.941" gradientUnits="userSpaceOnUse">
<stop stop-color="white"/>
<stop offset="0.69" stop-color="#D9D9D9"/>
<stop offset="1" stop-color="#C7C8C8"/>
</linearGradient>
<linearGradient id="paint3_linear_622_8119" x1="-27.549" y1="-1.68441" x2="-29.5787" y2="-3.71409" gradientUnits="userSpaceOnUse">
<stop stop-color="white"/>
<stop offset="0.69" stop-color="#D9D9D9"/>
<stop offset="1" stop-color="#C7C8C8"/>
</linearGradient>
<linearGradient id="paint4_linear_622_8119" x1="6.53024" y1="12.81" x2="11.9302" y2="18.21" gradientUnits="userSpaceOnUse">
<stop stop-color="#92DDFD"/>
<stop offset="0.34" stop-color="#7AC7ED"/>
<stop offset="0.74" stop-color="#64B3E0"/>
<stop offset="1" stop-color="#5CACDB"/>
</linearGradient>
<linearGradient id="paint5_linear_622_8119" x1="11.9202" y1="19.3101" x2="12.8302" y2="20.2201" gradientUnits="userSpaceOnUse">
<stop stop-color="white"/>
<stop offset="0.26" stop-color="#FAFAFA"/>
<stop offset="0.53" stop-color="#EEEEEE"/>
<stop offset="0.81" stop-color="#D9DADA"/>
<stop offset="1" stop-color="#C7C8C8"/>
</linearGradient>
<linearGradient id="paint6_linear_622_8119" x1="14.2195" y1="16.7901" x2="15.1995" y2="17.7701" gradientUnits="userSpaceOnUse">
<stop stop-color="white"/>
<stop offset="0.26" stop-color="#FAFAFA"/>
<stop offset="0.53" stop-color="#EEEEEE"/>
<stop offset="0.81" stop-color="#D9DADA"/>
<stop offset="1" stop-color="#C7C8C8"/>
</linearGradient>
<linearGradient id="paint7_linear_622_8119" x1="6.72031" y1="18.68" x2="7.40031" y2="19.36" gradientUnits="userSpaceOnUse">
<stop stop-color="white"/>
<stop offset="0.26" stop-color="#FAFAFA"/>
<stop offset="0.53" stop-color="#EEEEEE"/>
<stop offset="0.81" stop-color="#D9DADA"/>
<stop offset="1" stop-color="#C7C8C8"/>
</linearGradient>
<linearGradient id="paint8_linear_622_8119" x1="14.5797" y1="19.1" x2="15.2697" y2="19.79" gradientUnits="userSpaceOnUse">
<stop stop-color="white"/>
<stop offset="0.26" stop-color="#FAFAFA"/>
<stop offset="0.53" stop-color="#EEEEEE"/>
<stop offset="0.81" stop-color="#D9DADA"/>
<stop offset="1" stop-color="#C7C8C8"/>
</linearGradient>
<clipPath id="clip0_622_8119">
<rect width="23.64" height="23.64" fill="white"/>
</clipPath>
</defs>
</svg>
