<svg width="24" height="24" viewBox="0 0 24 24" fill="none" xmlns="http://www.w3.org/2000/svg">
<g clip-path="url(#clip0_622_7968)">
<path d="M15.2143 23.1362C21.4669 21.2603 25.015 14.6708 23.1391 8.41815C21.2632 2.16548 14.6737 -1.3826 8.42107 0.493291C2.1684 2.36918 -1.37968 8.95868 0.496211 15.2114C2.3721 21.464 8.9616 25.0121 15.2143 23.1362Z" fill="#cccccc"/>
<path d="M11.78 7.54993C11.78 5.82993 10.38 4.42993 8.66004 4.42993C6.94004 4.42993 5.54004 5.82993 5.54004 7.54993C5.54004 9.26993 6.94004 10.6699 8.66004 10.6699C10.38 10.6699 11.78 9.26993 11.78 7.54993V7.54993Z" fill="#DADBDB"/>
<path style="mix-blend-mode:multiply" d="M10.7629 5.22486L6.35059 9.63721L9.50428 12.7909L13.9166 8.37856L10.7629 5.22486Z" fill="url(#paint0_linear_622_7968)"/>
<path d="M11.4998 7.25989C11.4998 5.53989 10.0998 4.13989 8.37977 4.13989C6.65977 4.13989 5.25977 5.53989 5.25977 7.25989C5.25977 8.97989 6.65977 10.3799 8.37977 10.3799C10.0998 10.3799 11.4998 8.97989 11.4998 7.25989V7.25989Z" fill="url(#paint1_linear_622_7968)"/>
<g style="mix-blend-mode:multiply">
<path d="M8.75911 18.9097C8.64911 19.0997 8.39911 19.1697 8.20911 19.0597C8.01911 18.9497 7.94911 18.6997 8.05911 18.4997L9.72911 15.6097C9.83911 15.4197 10.0891 15.3497 10.2791 15.4597C10.4691 15.5697 10.5391 15.8197 10.4291 16.0097L8.75911 18.8997V18.9097Z" fill="#DADBDB"/>
<path d="M9.6888 20.6497C9.5788 20.8397 9.3288 20.9097 9.1388 20.7997C8.9488 20.6897 8.8788 20.4397 8.9888 20.2397L11.6488 15.6097C11.7588 15.4197 12.0088 15.3497 12.1988 15.4597C12.3888 15.5697 12.4588 15.8197 12.3488 16.0097L9.6888 20.6397V20.6497Z" fill="#DADBDB"/>
<path d="M12.6087 18.9097C12.4987 19.0997 12.2487 19.1697 12.0587 19.0597C11.8687 18.9497 11.7987 18.6997 11.9087 18.4997L13.5787 15.6097C13.6887 15.4197 13.9387 15.3497 14.1287 15.4597C14.3187 15.5697 14.3887 15.8197 14.2787 16.0097L12.6087 18.8997V18.9097Z" fill="#DADBDB"/>
<path d="M15.1488 17.7998C15.0388 17.9898 14.7888 18.0598 14.5988 17.9498C14.4088 17.8398 14.3388 17.5898 14.4488 17.3998L15.4988 15.6198C15.6088 15.4298 15.8588 15.3598 16.0488 15.4698C16.2388 15.5798 16.3088 15.8298 16.1988 16.0198L15.1488 17.7998V17.7998Z" fill="#DADBDB"/>
</g>
<path d="M8.70931 18.5099C8.59931 18.6999 8.34931 18.7699 8.15931 18.6599C7.96931 18.5499 7.89931 18.2999 8.00931 18.1099L9.67931 15.2199C9.78931 15.0299 10.0393 14.9599 10.2293 15.0699C10.4193 15.1799 10.4893 15.4299 10.3793 15.6199L8.70931 18.5099V18.5099Z" fill="url(#paint2_linear_622_7968)"/>
<path d="M9.63899 20.2398C9.52899 20.4298 9.27899 20.4998 9.08899 20.3898C8.89899 20.2798 8.82899 20.0298 8.93899 19.8398L11.599 15.2098C11.709 15.0198 11.959 14.9498 12.149 15.0598C12.339 15.1698 12.409 15.4198 12.299 15.6098L9.63899 20.2398Z" fill="url(#paint3_linear_622_7968)"/>
<path d="M12.5589 18.5099C12.4489 18.6999 12.1989 18.7699 12.0089 18.6599C11.8189 18.5499 11.7489 18.2999 11.8589 18.1099L13.5289 15.2199C13.6389 15.0299 13.8889 14.9599 14.0789 15.0699C14.2689 15.1799 14.3389 15.4299 14.2289 15.6199L12.5589 18.5099V18.5099Z" fill="url(#paint4_linear_622_7968)"/>
<path d="M15.1097 17.3999C14.9997 17.5899 14.7497 17.6599 14.5597 17.5499C14.3697 17.4399 14.2997 17.1899 14.4097 16.9999L15.4597 15.2199C15.5697 15.0299 15.8197 14.9599 16.0097 15.0699C16.1997 15.1799 16.2697 15.4299 16.1597 15.6199L15.1097 17.3999V17.3999Z" fill="url(#paint5_linear_622_7968)"/>
<g style="mix-blend-mode:multiply">
<path d="M16.7299 8.11978C16.7299 8.11978 16.6399 8.11978 16.5899 8.11978C16.4899 6.39978 15.0599 5.02979 13.3099 5.02979C11.5599 5.02979 10.0199 6.49978 10.0199 8.31978C10.0199 8.42978 10.0199 8.52979 10.0399 8.62979C9.77988 8.55979 9.49988 8.51979 9.21988 8.51979C7.51988 8.51979 6.12988 9.89978 6.12988 11.6098C6.12988 13.3198 7.50988 14.6998 9.21988 14.6998H16.7399C18.5599 14.6998 20.0299 13.2298 20.0299 11.4098C20.0299 9.58978 18.5599 8.11978 16.7399 8.11978H16.7299Z" fill="#DADBDB"/>
</g>
<path d="M16.3197 7.70987C16.3197 7.70987 16.2297 7.70987 16.1797 7.70987C16.0797 5.98987 14.6497 4.61987 12.8997 4.61987C11.1497 4.61987 9.60973 6.08987 9.60973 7.90987C9.60973 8.01987 9.60973 8.11987 9.62973 8.21987C9.36973 8.14987 9.08973 8.10987 8.80973 8.10987C7.09973 8.10987 5.71973 9.48987 5.71973 11.1999C5.71973 12.9099 7.09973 14.2899 8.80973 14.2899H16.3297C18.1497 14.2899 19.6197 12.8199 19.6197 10.9999C19.6197 9.17987 18.1497 7.70987 16.3297 7.70987H16.3197Z" fill="url(#paint6_linear_622_7968)"/>
</g>
<defs>
<linearGradient id="paint0_linear_622_7968" x1="72.6632" y1="-3.71636" x2="76.8541" y2="-0.532504" gradientUnits="userSpaceOnUse">
<stop stop-color="#C7C8C8"/>
<stop offset="1" stop-color="#DADBDB"/>
</linearGradient>
<linearGradient id="paint1_linear_622_7968" x1="6.17977" y1="5.05989" x2="10.5898" y2="9.46989" gradientUnits="userSpaceOnUse">
<stop stop-color="#FCCA4F"/>
<stop offset="1" stop-color="#EC7A15"/>
</linearGradient>
<linearGradient id="paint2_linear_622_7968" x1="8.58803" y1="16.2404" x2="9.77099" y2="17.4315" gradientUnits="userSpaceOnUse">
<stop stop-color="#92DDFD"/>
<stop offset="0.34" stop-color="#7AC7ED"/>
<stop offset="0.74" stop-color="#64B3E0"/>
<stop offset="1" stop-color="#5CACDB"/>
</linearGradient>
<linearGradient id="paint3_linear_622_7968" x1="9.83247" y1="16.9244" x2="11.3921" y2="18.4831" gradientUnits="userSpaceOnUse">
<stop stop-color="#92DDFD"/>
<stop offset="0.34" stop-color="#7AC7ED"/>
<stop offset="0.74" stop-color="#64B3E0"/>
<stop offset="1" stop-color="#5CACDB"/>
</linearGradient>
<linearGradient id="paint4_linear_622_7968" x1="12.4402" y1="16.2476" x2="13.6281" y2="17.43" gradientUnits="userSpaceOnUse">
<stop stop-color="#92DDFD"/>
<stop offset="0.34" stop-color="#7AC7ED"/>
<stop offset="0.74" stop-color="#64B3E0"/>
<stop offset="1" stop-color="#5CACDB"/>
</linearGradient>
<linearGradient id="paint5_linear_622_7968" x1="14.7921" y1="15.8153" x2="15.7393" y2="16.7548" gradientUnits="userSpaceOnUse">
<stop stop-color="#92DDFD"/>
<stop offset="0.34" stop-color="#7AC7ED"/>
<stop offset="0.74" stop-color="#64B3E0"/>
<stop offset="1" stop-color="#5CACDB"/>
</linearGradient>
<linearGradient id="paint6_linear_622_7968" x1="8.61973" y1="7.01987" x2="16.7897" y2="15.1899" gradientUnits="userSpaceOnUse">
<stop stop-color="white"/>
<stop offset="0.26" stop-color="#FAFAFA"/>
<stop offset="0.53" stop-color="#EEEEEE"/>
<stop offset="0.81" stop-color="#D9DADA"/>
<stop offset="1" stop-color="#C7C8C8"/>
</linearGradient>
<clipPath id="clip0_622_7968">
<rect width="23.64" height="23.64" fill="white"/>
</clipPath>
</defs>
</svg>
