<svg width="77" height="30" viewBox="0 0 77 30" fill="none" xmlns="http://www.w3.org/2000/svg">
<g clip-path="url(#clip0_828_5647)">
<path d="M0 10.0086C0.0749486 7.73579 0.280363 5.35336 1.29772 3.30826C2.06525 1.76495 3.43098 0.334091 5.20615 0.173857C7.02158 0.0108112 8.41507 1.44027 9.15623 2.99623C10.1722 5.12987 10.3957 7.39564 10.4817 9.7331C10.497 13.4916 10.5122 17.2501 10.5275 21.0085C10.4637 23.1801 10.3415 25.3869 9.21868 27.2816C8.39425 28.6731 6.86474 29.4475 5.2811 29.4489C3.70163 29.4489 2.19572 28.6689 1.3352 27.3111C0.216518 25.5471 0.00555175 23.1773 0 21.128V10.0086ZM4.44001 22.2553C4.44279 23.1633 4.7176 23.6046 5.26584 23.5948C5.81407 23.5849 6.08749 23.1323 6.08611 22.2215C6.075 17.2725 6.06251 12.3235 6.05141 7.37456C6.04863 6.46375 5.77243 5.9943 5.22281 6.02944C4.67319 6.06598 4.40115 6.56636 4.40254 7.47435C4.41503 12.4009 4.42891 17.3288 4.4414 22.2553H4.44001ZM16.0959 3.33356C14.6774 2.82616 13.2631 2.30891 11.8502 1.78744C11.9071 11.1387 11.9626 20.4885 12.0195 29.8397H16.4332C16.386 26.1079 16.3388 22.3761 16.2916 18.6444C16.9842 18.7442 17.3312 18.7934 18.0251 18.8875C17.9988 17.1812 17.9724 15.4748 17.946 13.7699C17.2562 13.6321 16.912 13.5604 16.2236 13.4129C16.1806 10.0536 16.1389 6.69427 16.0959 3.33356Z" fill="#007AFF"/>
<path d="M19.1641 4.67075C20.5728 5.09804 22.0385 5.45787 23.4903 5.70243C23.6235 11.8166 23.7567 17.9308 23.89 24.0464C25.9178 24.1167 27.9386 24.1476 29.9678 24.1294C29.9969 25.7148 30.0261 27.3017 30.0552 28.8872C26.5645 28.8914 23.0753 28.8689 19.5846 28.8324C19.4444 20.7785 19.3042 12.7246 19.1641 4.67075ZM35.9234 14.1021C36.6368 13.9714 36.9921 13.9039 37.7014 13.7676C37.7111 15.4739 37.7222 17.1803 37.7319 18.8866C37.024 18.9794 36.6701 19.0258 35.9595 19.1143C35.9845 22.6901 36.0109 26.2644 36.0358 29.8402H31.6222C31.5001 21.7455 31.3765 13.6495 31.2544 5.55485C32.8269 5.25687 34.3134 4.88018 35.8554 4.44727C35.879 7.66601 35.9012 10.8847 35.9248 14.1035L35.9234 14.1021Z" fill="#007AFF"/>
<path d="M39.1991 28.7985C39.1547 20.4452 39.1089 12.092 39.0645 3.73871C40.5357 3.27768 42.0069 2.82228 43.4836 2.38093C43.4961 5.00934 43.5086 7.63914 43.5225 10.2675C44.1804 10.1312 44.5107 10.0637 45.1742 9.95551C45.163 7.28494 45.1506 4.61437 45.1395 1.9424C46.6745 1.64582 48.1013 1.46029 49.6614 1.35487C49.6655 10.4714 49.6697 19.5864 49.6752 28.7029C46.1832 28.7127 42.6911 28.7535 39.1991 28.7985ZM43.5489 15.745C43.5614 18.2526 43.5739 20.7601 43.585 23.2676C44.2428 23.2226 44.5718 23.1987 45.2311 23.1636C45.22 20.6167 45.2089 18.0684 45.1977 15.5215C44.5357 15.6003 44.2054 15.648 43.5489 15.7464V15.745ZM55.71 13.1012C56.4164 13.1967 56.769 13.253 57.4685 13.3809L57.4449 18.8555C56.744 18.7698 56.3915 18.7318 55.685 18.6686C55.6683 22.3919 55.6531 26.1167 55.6364 29.84H51.2228L51.2547 1.05127C52.8078 1.15388 54.2277 1.3366 55.7572 1.63177L55.7072 13.1012H55.71Z" fill="#007AFF"/>
<path d="M68.7918 6.54974C68.7918 8.10289 68.7918 9.65463 68.7904 11.2078C66.882 10.8704 65.0332 10.3532 63.1803 9.78675C63.1901 14.4659 63.1998 19.1436 63.2095 23.8227C65.2248 24.0068 67.2387 24.1586 69.2595 24.2725C69.2595 25.8186 69.2567 27.3647 69.2567 28.9094C65.7758 28.8771 62.2948 28.8167 58.8125 28.7605C58.8416 20.1528 58.8694 11.5437 58.8986 2.93604C62.1963 4.30365 65.3178 5.68251 68.7932 6.54833L68.7918 6.54974ZM75.2748 15.4962C75.9702 15.4498 76.3158 15.4146 77 15.3191V19.9434C76.3088 20.0094 75.9619 20.0333 75.2637 20.0642C75.2554 23.3223 75.2484 26.5804 75.2401 29.8385H70.8265L70.8737 6.61018C72.3588 6.75214 73.805 6.87302 75.2956 6.69592L75.2748 15.4962Z" fill="#007AFF"/>
</g>
<defs>
<clipPath id="clip0_828_5647">
<rect width="77" height="29.6771" fill="white" transform="translate(0 0.161621)"/>
</clipPath>
</defs>
</svg>
