<svg width="16" height="16" viewBox="0 0 16 16" fill="none" xmlns="http://www.w3.org/2000/svg">
<path d="M8 14.6666C8 14.6666 13 10.6666 13 6.33325C13 3.57182 10.7614 1.33325 8 1.33325C5.23857 1.33325 3 3.57182 3 6.33325C3 10.6666 8 14.6666 8 14.6666Z" fill="#C7C7CC"/>
<path fillRule="evenodd" clipRule="evenodd" d="M2.5 6.33325C2.5 3.29568 4.96242 0.833252 8 0.833252C11.0376 0.833252 13.5 3.29568 13.5 6.33325C13.5 8.67711 12.1577 10.8743 10.8884 12.4398C10.246 13.232 9.60492 13.8837 9.12456 14.3374C8.88407 14.5645 8.68307 14.7428 8.54128 14.865C8.47036 14.9261 8.41419 14.9733 8.37523 15.0056C8.35575 15.0217 8.34057 15.0341 8.32998 15.0428L8.3176 15.0528L8.31407 15.0556L8.31298 15.0565L8.31261 15.0568C8.31247 15.0569 8.31235 15.057 8 14.6666C7.68765 15.057 7.68753 15.0569 7.68739 15.0568L7.68702 15.0565L7.68593 15.0556L7.6824 15.0528L7.67002 15.0428C7.65943 15.0341 7.64425 15.0217 7.62477 15.0056C7.58581 14.9733 7.52964 14.9261 7.45872 14.865C7.31693 14.7428 7.11593 14.5645 6.87544 14.3374C6.39508 13.8837 5.75396 13.232 5.11162 12.4398C3.84231 10.8743 2.5 8.67711 2.5 6.33325ZM8 14.6666L7.68765 15.057C7.87026 15.2031 8.12974 15.2031 8.31235 15.057L8 14.6666ZM8 14.0103C8.11918 13.9053 8.26783 13.771 8.43794 13.6104C8.89508 13.1786 9.50396 12.5595 10.1116 11.81C11.3423 10.2922 12.5 8.32273 12.5 6.33325C12.5 3.84796 10.4853 1.83325 8 1.83325C5.51471 1.83325 3.5 3.84796 3.5 6.33325C3.5 8.32273 4.65769 10.2922 5.88838 11.81C6.49604 12.5595 7.10492 13.1786 7.56206 13.6104C7.73217 13.771 7.88081 13.9053 8 14.0103Z" fill="#C7C7CC"/>
<path d="M8 8.33325C9.10457 8.33325 10 7.43782 10 6.33325C10 5.22869 9.10457 4.33325 8 4.33325C6.89543 4.33325 6 5.22869 6 6.33325C6 7.43782 6.89543 8.33325 8 8.33325Z" fill="#FFFBFF"/>
<path fillRule="evenodd" clipRule="evenodd" d="M5.5 6.33325C5.5 4.95254 6.61929 3.83325 8 3.83325C9.38071 3.83325 10.5 4.95254 10.5 6.33325C10.5 7.71396 9.38071 8.83325 8 8.83325C6.61929 8.83325 5.5 7.71396 5.5 6.33325ZM8 4.83325C7.17158 4.83325 6.5 5.50483 6.5 6.33325C6.5 7.16168 7.17158 7.83325 8 7.83325C8.82842 7.83325 9.5 7.16168 9.5 6.33325C9.5 5.50483 8.82842 4.83325 8 4.83325Z" fill="#FFFBFF"/>
</svg>
