<svg width="25" height="25" viewBox="0 0 25 25" fill="none" xmlns="http://www.w3.org/2000/svg">
<path d="M24.0227 12.6054C24.2415 6.08104 19.1297 0.614714 12.6054 0.395999C6.08106 0.177285 0.614732 5.289 0.396018 11.8133C0.177303 18.3377 5.28902 23.804 11.8134 24.0227C18.3377 24.2414 23.804 19.1297 24.0227 12.6054Z" fill="#cccccc"/>
<g style="mix-blend-mode:multiply">
<path d="M8.19954 18.3267C8.08954 18.5167 7.83954 18.5867 7.64954 18.4767C7.45954 18.3667 7.38954 18.1167 7.49954 17.9167L9.16954 15.0267C9.27954 14.8367 9.52954 14.7667 9.71954 14.8767C9.90954 14.9867 9.97954 15.2367 9.86954 15.4267L8.19954 18.3167V18.3267Z" fill="#DADBDB"/>
<path d="M9.12923 20.0567C9.01923 20.2467 8.76923 20.3167 8.57923 20.2067C8.38923 20.0967 8.31923 19.8467 8.42923 19.6467L11.0892 15.0167C11.1992 14.8267 11.4492 14.7567 11.6392 14.8667C11.8292 14.9767 11.8992 15.2267 11.7892 15.4167L9.12923 20.0467V20.0567Z" fill="#DADBDB"/>
<path d="M12.0491 18.3267C11.9391 18.5167 11.6891 18.5867 11.4991 18.4767C11.3091 18.3667 11.2391 18.1167 11.3491 17.9167L13.0191 15.0267C13.1291 14.8367 13.3791 14.7667 13.5691 14.8767C13.7591 14.9867 13.8291 15.2367 13.7191 15.4267L12.0491 18.3167V18.3267Z" fill="#DADBDB"/>
<path d="M14.5892 17.2167C14.4792 17.4067 14.2292 17.4767 14.0392 17.3667C13.8492 17.2567 13.7792 17.0067 13.8892 16.8167L14.9392 15.0367C15.0492 14.8467 15.2992 14.7767 15.4892 14.8867C15.6792 14.9967 15.7492 15.2467 15.6392 15.4367L14.5892 17.2167Z" fill="#DADBDB"/>
</g>
<path d="M8.14974 17.9168C8.03974 18.1068 7.78974 18.1768 7.59974 18.0668C7.40974 17.9568 7.33974 17.7068 7.44974 17.5168L9.11973 14.6268C9.22973 14.4368 9.47973 14.3668 9.66973 14.4768C9.85973 14.5868 9.92974 14.8368 9.81974 15.0268L8.14974 17.9168V17.9168Z" fill="url(#paint0_linear_622_8183)"/>
<path d="M9.09016 19.6568C8.98016 19.8468 8.73016 19.9168 8.54016 19.8068C8.35016 19.6968 8.28016 19.4468 8.39016 19.2568L11.0502 14.6268C11.1602 14.4368 11.4102 14.3668 11.6002 14.4768C11.7902 14.5868 11.8602 14.8368 11.7502 15.0268L9.09016 19.6568Z" fill="url(#paint1_linear_622_8183)"/>
<path d="M11.9993 17.9168C11.8893 18.1068 11.6393 18.1768 11.4493 18.0668C11.2593 17.9568 11.1893 17.7068 11.2993 17.5168L12.9693 14.6268C13.0793 14.4368 13.3293 14.3668 13.5193 14.4768C13.7093 14.5868 13.7793 14.8368 13.6693 15.0268L11.9993 17.9168V17.9168Z" fill="url(#paint2_linear_622_8183)"/>
<path d="M14.5501 16.8068C14.4401 16.9968 14.1901 17.0668 14.0001 16.9568C13.8101 16.8468 13.7401 16.5968 13.8501 16.4068L14.9001 14.6268C15.0101 14.4368 15.2601 14.3668 15.4501 14.4768C15.6401 14.5868 15.7101 14.8368 15.6001 15.0268L14.5501 16.8068Z" fill="url(#paint3_linear_622_8183)"/>
<g style="mix-blend-mode:multiply">
<path d="M16.1703 7.53678C16.1703 7.53678 16.0803 7.53678 16.0303 7.53678C15.9303 5.81678 14.5003 4.44678 12.7503 4.44678C11.0003 4.44678 9.46031 5.91678 9.46031 7.73678C9.46031 7.84678 9.46031 7.94678 9.48031 8.04678C9.22031 7.97678 8.94031 7.93678 8.66031 7.93678C6.96031 7.93678 5.57031 9.31678 5.57031 11.0268C5.57031 12.7368 6.95031 14.1168 8.66031 14.1168H16.1803C18.0003 14.1168 19.4703 12.6468 19.4703 10.8268C19.4703 9.00678 18.0003 7.53678 16.1803 7.53678H16.1703Z" fill="#DADBDB"/>
</g>
<path d="M15.7602 7.12662C15.7602 7.12662 15.6702 7.12662 15.6202 7.12662C15.5202 5.40662 14.0902 4.03662 12.3402 4.03662C10.5902 4.03662 9.05016 5.50662 9.05016 7.32662C9.05016 7.43662 9.05016 7.53662 9.07016 7.63662C8.81016 7.56662 8.53016 7.52662 8.25016 7.52662C6.54016 7.52662 5.16016 8.90662 5.16016 10.6166C5.16016 12.3266 6.54016 13.7066 8.25016 13.7066H15.7702C17.5902 13.7066 19.0602 12.2366 19.0602 10.4166C19.0602 8.59662 17.5902 7.12662 15.7702 7.12662H15.7602Z" fill="url(#paint4_linear_622_8183)"/>
<defs>
<linearGradient id="paint0_linear_622_8183" x1="8.04782" y1="15.6594" x2="9.23578" y2="16.8418" gradientUnits="userSpaceOnUse">
<stop stop-color="#92DDFD"/>
<stop offset="0.34" stop-color="#7AC7ED"/>
<stop offset="0.74" stop-color="#64B3E0"/>
<stop offset="1" stop-color="#5CACDB"/>
</linearGradient>
<linearGradient id="paint1_linear_622_8183" x1="9.28934" y1="16.3297" x2="10.849" y2="17.8884" gradientUnits="userSpaceOnUse">
<stop stop-color="#92DDFD"/>
<stop offset="0.34" stop-color="#7AC7ED"/>
<stop offset="0.74" stop-color="#64B3E0"/>
<stop offset="1" stop-color="#5CACDB"/>
</linearGradient>
<linearGradient id="paint2_linear_622_8183" x1="11.8963" y1="15.653" x2="13.0843" y2="16.8353" gradientUnits="userSpaceOnUse">
<stop stop-color="#92DDFD"/>
<stop offset="0.34" stop-color="#7AC7ED"/>
<stop offset="0.74" stop-color="#64B3E0"/>
<stop offset="1" stop-color="#5CACDB"/>
</linearGradient>
<linearGradient id="paint3_linear_622_8183" x1="14.2569" y1="15.2256" x2="15.1954" y2="16.1601" gradientUnits="userSpaceOnUse">
<stop stop-color="#92DDFD"/>
<stop offset="0.34" stop-color="#7AC7ED"/>
<stop offset="0.74" stop-color="#64B3E0"/>
<stop offset="1" stop-color="#5CACDB"/>
</linearGradient>
<linearGradient id="paint4_linear_622_8183" x1="8.07016" y1="6.42662" x2="16.2302" y2="14.5966" gradientUnits="userSpaceOnUse">
<stop stop-color="white"/>
<stop offset="0.26" stop-color="#FAFAFA"/>
<stop offset="0.53" stop-color="#EEEEEE"/>
<stop offset="0.81" stop-color="#D9DADA"/>
<stop offset="1" stop-color="#C7C8C8"/>
</linearGradient>
</defs>
</svg>
