<svg width="24" height="24" viewBox="0 0 24 24" fill="none" xmlns="http://www.w3.org/2000/svg">
<g clip-path="url(#clip0_622_8059)">
<path d="M23.6196 12.5985C24.0511 6.0848 19.1205 0.454577 12.6067 0.0230773C6.09302 -0.408422 0.462799 4.5222 0.031299 11.0359C-0.400201 17.5497 4.53042 23.1799 11.0441 23.6114C17.5579 24.0429 23.1881 19.1123 23.6196 12.5985Z" fill="#cccccc"/>
<g style="mix-blend-mode:multiply">
<path d="M16.1895 7.03005C16.1395 7.03005 16.0795 7.03005 16.0295 7.03005C15.9095 5.08005 14.2795 3.55005 12.3095 3.55005C10.2595 3.55005 8.59954 5.23005 8.60954 7.28005C8.60954 7.40005 8.60954 7.52005 8.62954 7.63005C8.32954 7.55005 8.01954 7.51005 7.69954 7.51005C5.76954 7.51005 4.21954 9.09005 4.22954 11.01C4.22954 12.94 5.80954 14.49 7.72954 14.48L16.2195 14.44C18.2695 14.44 19.9295 12.76 19.9195 10.71C19.9195 8.66005 18.2395 7.00005 16.1895 7.01005V7.03005Z" fill="#DADBDB"/>
</g>
<path d="M15.7198 6.5801C15.6698 6.5801 15.6098 6.5801 15.5598 6.5801C15.4398 4.6301 13.8098 3.1001 11.8398 3.1001C9.78981 3.1001 8.12981 4.7801 8.13981 6.8301C8.13981 6.9501 8.13981 7.0701 8.15981 7.1801C7.85981 7.1001 7.54981 7.0601 7.22981 7.0601C5.29981 7.0601 3.74981 8.6401 3.75981 10.5601C3.75981 12.4901 5.33981 14.0401 7.25981 14.0301L15.7498 13.9901C17.7998 13.9901 19.4598 12.3101 19.4498 10.2601C19.4498 8.2101 17.7698 6.5501 15.7198 6.5601V6.5801Z" fill="url(#paint0_linear_622_8059)"/>
<path style="mix-blend-mode:multiply" d="M12.3003 8.25L15.8903 11.81L12.9803 13.81L11.5703 12.42L12.3003 8.25Z" fill="url(#paint1_linear_622_8059)"/>
<path style="mix-blend-mode:multiply" d="M8.68004 10.5901L11.87 13.7501L9.85004 15.7901L7.04004 13.0101L8.78004 12.1701L8.68004 10.5901Z" fill="url(#paint2_linear_622_8059)"/>
<g style="mix-blend-mode:multiply">
<path d="M17.5002 17.02C17.4702 16.9 17.3902 16.8 17.2802 16.73L16.3402 16.19H16.7902C17.0202 16.19 17.2002 16 17.2002 15.77C17.2002 15.54 17.0102 15.36 16.7902 15.36H15.0602C15.0602 15.36 14.9802 15.37 14.9402 15.39L13.1502 14.36L14.9402 13.32C14.9402 13.32 15.0202 13.34 15.0602 13.34H16.7902C17.0202 13.34 17.2002 13.15 17.2002 12.92C17.2002 12.69 17.0102 12.51 16.7902 12.51H16.3402L17.2802 11.96C17.5102 11.83 17.5802 11.54 17.4502 11.31C17.3602 11.16 17.2102 11.07 17.0402 11.07C16.9602 11.07 16.8802 11.09 16.8002 11.13L15.8602 11.68L16.0802 11.29C16.1302 11.19 16.1502 11.08 16.1202 10.98C16.0902 10.87 16.0202 10.78 15.9302 10.73C15.8702 10.69 15.8002 10.68 15.7202 10.68C15.5702 10.68 15.4402 10.76 15.3602 10.89L14.5002 12.39C14.5002 12.39 14.4602 12.46 14.4602 12.5L12.6702 13.54V11.47C12.6702 11.47 12.7202 11.41 12.7402 11.37L13.6002 9.87005C13.7102 9.67005 13.6402 9.42005 13.4502 9.31005C13.3902 9.27005 13.3202 9.26005 13.2402 9.26005C13.0902 9.26005 12.9602 9.34005 12.8802 9.47005L12.6602 9.86005V8.77005C12.6602 8.51005 12.4402 8.30005 12.1802 8.30005C11.9202 8.30005 11.7102 8.52005 11.7102 8.78005V9.87005L11.4902 9.48005C11.4202 9.35005 11.2802 9.27005 11.1302 9.28005C11.0602 9.28005 10.9902 9.30005 10.9202 9.34005C10.7202 9.45005 10.6602 9.71005 10.7702 9.90005L11.6402 11.39C11.6402 11.39 11.6902 11.46 11.7202 11.48V13.55L9.9302 12.52C9.9302 12.52 9.9102 12.44 9.8902 12.41L9.0202 10.91C8.9502 10.78 8.8102 10.7 8.6602 10.71C8.5902 10.71 8.5202 10.73 8.4502 10.77C8.3502 10.83 8.2902 10.91 8.2602 11.02C8.2302 11.13 8.2502 11.24 8.3002 11.33L8.5302 11.72L7.5902 11.18C7.5202 11.14 7.4302 11.12 7.3502 11.12C7.1802 11.12 7.0202 11.21 6.9402 11.36C6.8102 11.59 6.8902 11.88 7.1202 12.01L8.0602 12.55H7.6102C7.3802 12.55 7.2002 12.74 7.2002 12.97C7.2002 13.2 7.3902 13.38 7.6102 13.38H9.3402C9.3402 13.38 9.4202 13.37 9.4602 13.35L11.2502 14.38L9.4602 15.42C9.4602 15.42 9.3802 15.4 9.3402 15.4H7.6102C7.3802 15.4 7.2002 15.59 7.2002 15.82C7.2002 16.05 7.3902 16.23 7.6102 16.23H8.0602L7.1202 16.78C7.0102 16.84 6.9302 16.95 6.9002 17.07C6.8702 17.19 6.8902 17.32 6.9502 17.43C7.0402 17.58 7.1902 17.67 7.3602 17.67C7.4402 17.67 7.5302 17.65 7.6002 17.61L8.5402 17.06L8.3202 17.45C8.2102 17.65 8.2802 17.9 8.4702 18.01C8.5302 18.05 8.6002 18.06 8.6802 18.06C8.8302 18.06 8.9602 17.98 9.0402 17.85L9.9002 16.35C9.9002 16.35 9.9302 16.28 9.9402 16.24L11.7302 15.2V17.27C11.7302 17.27 11.6802 17.33 11.6602 17.37L10.8002 18.87C10.6902 19.07 10.7602 19.32 10.9502 19.43C11.0102 19.47 11.0802 19.48 11.1602 19.48C11.3102 19.48 11.4402 19.4 11.5202 19.27L11.7402 18.88V19.97C11.7402 20.23 11.9602 20.44 12.2202 20.44C12.4802 20.44 12.7002 20.22 12.6902 19.96V18.87L12.9102 19.26C12.9802 19.39 13.1202 19.47 13.2702 19.47C13.3402 19.47 13.4102 19.45 13.4802 19.41C13.6802 19.3 13.7402 19.04 13.6302 18.85L12.7602 17.36C12.7602 17.36 12.7102 17.29 12.6802 17.27V15.2L14.4702 16.23C14.4702 16.23 14.4902 16.31 14.5102 16.34L15.3802 17.83C15.4502 17.96 15.5902 18.04 15.7402 18.03C15.8102 18.03 15.8802 18.01 15.9502 17.97C16.0502 17.91 16.1102 17.83 16.1402 17.72C16.1702 17.61 16.1502 17.5 16.1002 17.41L15.8702 17.02L16.8102 17.56C16.8802 17.6 16.9602 17.62 17.0502 17.62C17.2202 17.62 17.3802 17.53 17.4602 17.38C17.5202 17.27 17.5402 17.14 17.5102 17.02H17.5002Z" fill="#DADBDB"/>
</g>
<path d="M17.2805 16.7999C17.2505 16.6799 17.1705 16.5799 17.0605 16.5099L16.1205 15.9699H16.5705C16.8005 15.9699 16.9805 15.7799 16.9805 15.5499C16.9805 15.3199 16.7905 15.1399 16.5705 15.1399H14.8405C14.8405 15.1399 14.7605 15.1499 14.7205 15.1699L12.9305 14.1399L14.7205 13.0999C14.7205 13.0999 14.8005 13.1199 14.8405 13.1199H16.5705C16.8005 13.1199 16.9805 12.9299 16.9805 12.6999C16.9805 12.4699 16.7905 12.2899 16.5705 12.2899H16.1205L17.0605 11.7399C17.2905 11.6099 17.3605 11.3199 17.2305 11.0899C17.1405 10.9399 16.9905 10.8499 16.8205 10.8499C16.7405 10.8499 16.6505 10.8699 16.5805 10.9099L15.6405 11.4599L15.8605 11.0699C15.9105 10.9699 15.9305 10.8599 15.9005 10.7599C15.8705 10.6499 15.8005 10.5599 15.7105 10.5099C15.6505 10.4699 15.5805 10.4599 15.5005 10.4599C15.3505 10.4599 15.2205 10.5399 15.1405 10.6699L14.2805 12.1699C14.2805 12.1699 14.2505 12.2399 14.2405 12.2799L12.4505 13.3199V11.2499C12.4505 11.2499 12.5005 11.1899 12.5205 11.1499L13.3805 9.64992C13.4905 9.44992 13.4205 9.19992 13.2305 9.08992C13.1705 9.04992 13.1005 9.03992 13.0205 9.03992C12.8705 9.03992 12.7405 9.11992 12.6605 9.24992L12.4405 9.63992V8.54992C12.4405 8.28992 12.2205 8.06992 11.9605 8.07992C11.7005 8.07992 11.4905 8.29992 11.4905 8.55992V9.64992L11.2705 9.25992C11.2005 9.12992 11.0605 9.04992 10.9105 9.04992C10.8405 9.04992 10.7705 9.06992 10.7005 9.10992C10.5005 9.21992 10.4405 9.47992 10.5505 9.66992L11.4205 11.1599C11.4205 11.1599 11.4705 11.2299 11.5005 11.2499V13.3199L9.71047 12.2899C9.71047 12.2899 9.69047 12.2099 9.67047 12.1799L8.80047 10.6899C8.73047 10.5599 8.59047 10.4799 8.44047 10.4799C8.37047 10.4799 8.30047 10.4999 8.23047 10.5399C8.13047 10.5999 8.07047 10.6899 8.04047 10.7899C8.01047 10.8999 8.03047 11.0099 8.08047 11.0999L8.31047 11.4899L7.37047 10.9499C7.30047 10.9099 7.22047 10.8899 7.13047 10.8899C6.96047 10.8899 6.80047 10.9799 6.72047 11.1299C6.59047 11.3599 6.67047 11.6499 6.90047 11.7799L7.84047 12.3199H7.39047C7.16047 12.3199 6.98047 12.5099 6.98047 12.7399C6.98047 12.9699 7.17047 13.1499 7.39047 13.1499H9.12047C9.12047 13.1499 9.20047 13.1399 9.24047 13.1199L11.0305 14.1499L9.24047 15.1899C9.24047 15.1899 9.16047 15.1699 9.12047 15.1699H7.39047C7.16047 15.1699 6.98047 15.3599 6.98047 15.5899C6.98047 15.8199 7.17047 15.9999 7.39047 15.9999H7.84047L6.90047 16.5499C6.79047 16.6099 6.71047 16.7199 6.68047 16.8399C6.65047 16.9599 6.66047 17.0899 6.73047 17.1999C6.82047 17.3499 6.97047 17.4399 7.14047 17.4399C7.22047 17.4399 7.31047 17.4199 7.38047 17.3799L8.32047 16.8299L8.10047 17.2199C7.99047 17.4199 8.06047 17.6699 8.25047 17.7799C8.31047 17.8199 8.38047 17.8299 8.46047 17.8299C8.61047 17.8299 8.74047 17.7499 8.82047 17.6199L9.68047 16.1199C9.68047 16.1199 9.72047 16.0499 9.72047 16.0099L11.5105 14.9699V17.0399C11.5105 17.0399 11.4605 17.0999 11.4405 17.1399L10.5805 18.6399C10.4705 18.8399 10.5405 19.0899 10.7305 19.1999C10.7905 19.2399 10.8605 19.2499 10.9405 19.2499C11.0905 19.2499 11.2205 19.1699 11.3005 19.0399L11.5205 18.6499V19.7399C11.5205 19.9999 11.7405 20.2199 12.0005 20.2099C12.2605 20.2099 12.4805 19.9899 12.4705 19.7299V18.6399L12.6905 19.0299C12.7605 19.1599 12.9005 19.2399 13.0505 19.2299C13.1205 19.2299 13.1905 19.2099 13.2605 19.1699C13.4605 19.0599 13.5205 18.7999 13.4105 18.6099L12.5405 17.1199C12.5405 17.1199 12.4905 17.0499 12.4605 17.0299V14.9599L14.2505 15.9899C14.2505 15.9899 14.2705 16.0699 14.2905 16.0999L15.1605 17.5899C15.2305 17.7199 15.3705 17.7999 15.5205 17.7999C15.5905 17.7999 15.6605 17.7799 15.7305 17.7399C15.8305 17.6799 15.8905 17.5999 15.9205 17.4899C15.9505 17.3799 15.9305 17.2699 15.8805 17.1799L15.6505 16.7899L16.5905 17.3299C16.6605 17.3699 16.7405 17.3899 16.8305 17.3899C17.0005 17.3899 17.1605 17.2999 17.2405 17.1499C17.3005 17.0399 17.3205 16.9099 17.2905 16.7899L17.2805 16.7999Z" fill="url(#paint3_linear_622_8059)"/>
</g>
<defs>
<linearGradient id="paint0_linear_622_8059" x1="7.01591" y1="5.83694" x2="16.2861" y2="15.0166" gradientUnits="userSpaceOnUse">
<stop stop-color="white"/>
<stop offset="0.26" stop-color="#FAFAFA"/>
<stop offset="0.53" stop-color="#EEEEEE"/>
<stop offset="0.81" stop-color="#D9DADA"/>
<stop offset="1" stop-color="#C7C8C8"/>
</linearGradient>
<linearGradient id="paint1_linear_622_8059" x1="26.0541" y1="27.3385" x2="22.4456" y2="23.7601" gradientUnits="userSpaceOnUse">
<stop stop-color="white"/>
<stop offset="0.69" stop-color="#D9D9D9"/>
<stop offset="1" stop-color="#C7C8C8"/>
</linearGradient>
<linearGradient id="paint2_linear_622_8059" x1="-25.1157" y1="1.52591" x2="-28.2518" y2="-1.58302" gradientUnits="userSpaceOnUse">
<stop stop-color="white"/>
<stop offset="0.69" stop-color="#D9D9D9"/>
<stop offset="1" stop-color="#C7C8C8"/>
</linearGradient>
<linearGradient id="paint3_linear_622_8059" x1="7.7948" y1="10.0134" x2="16.141" y2="18.2971" gradientUnits="userSpaceOnUse">
<stop stop-color="#92DDFD"/>
<stop offset="0.34" stop-color="#7AC7ED"/>
<stop offset="0.74" stop-color="#64B3E0"/>
<stop offset="1" stop-color="#5CACDB"/>
</linearGradient>
<clipPath id="clip0_622_8059">
<rect width="23.64" height="23.64" fill="white"/>
</clipPath>
</defs>
</svg>
