<svg width="24" height="24" viewBox="0 0 24 24" fill="none" xmlns="http://www.w3.org/2000/svg">
<g clip-path="url(#clip0_622_8154)">
<path d="M23.64 11.82C23.64 5.29 18.34 0 11.82 0C5.3 0 0 5.29 0 11.82C0 18.35 5.29 23.64 11.82 23.64C18.35 23.64 23.64 18.35 23.64 11.82Z" fill="#cccccc"/>
<g style="mix-blend-mode:multiply">
<path d="M7.35001 18.79C7.23001 19 6.96001 19.0699 6.74001 18.9499C6.53001 18.8299 6.46001 18.5599 6.58001 18.3399L8.40001 15.1799C8.52001 14.9699 8.79001 14.8999 9.01001 15.0199C9.22001 15.1399 9.29001 15.4099 9.17001 15.6299L7.35001 18.79V18.79Z" fill="#DADBDB"/>
<path d="M8.35977 20.6799C8.23977 20.8899 7.96977 20.9599 7.74977 20.8399C7.53977 20.7199 7.46977 20.4499 7.58977 20.2299L10.4898 15.1799C10.6098 14.9699 10.8798 14.8999 11.0998 15.0199C11.3098 15.1399 11.3798 15.4099 11.2598 15.6299L8.35977 20.6799V20.6799Z" fill="#DADBDB"/>
<path d="M11.5502 18.79C11.4302 19 11.1602 19.0699 10.9402 18.9499C10.7302 18.8299 10.6602 18.5599 10.7802 18.3399L12.6002 15.1799C12.7202 14.9699 12.9902 14.8999 13.2102 15.0199C13.4202 15.1399 13.4902 15.4099 13.3702 15.6299L11.5502 18.79Z" fill="#DADBDB"/>
<path d="M14.3197 17.5799C14.1997 17.7899 13.9297 17.8599 13.7097 17.7399C13.4997 17.6199 13.4297 17.3499 13.5497 17.1299L14.6997 15.1799C14.8197 14.9699 15.0897 14.8999 15.3097 15.0199C15.5197 15.1399 15.5897 15.4099 15.4697 15.6299L14.3197 17.5799Z" fill="#DADBDB"/>
</g>
<path d="M7.3002 18.35C7.1802 18.56 6.9102 18.63 6.6902 18.51C6.4802 18.39 6.4102 18.12 6.5302 17.9L8.3502 14.74C8.4702 14.53 8.7402 14.46 8.9602 14.58C9.1702 14.7 9.2402 14.97 9.1202 15.19L7.3002 18.35V18.35Z" fill="url(#paint0_linear_622_8154)"/>
<path d="M8.31973 20.24C8.19973 20.45 7.92973 20.52 7.70973 20.4C7.49973 20.28 7.42973 20.01 7.54973 19.79L10.4497 14.74C10.5697 14.53 10.8397 14.46 11.0597 14.58C11.2697 14.7 11.3397 14.97 11.2197 15.19L8.31973 20.24V20.24Z" fill="url(#paint1_linear_622_8154)"/>
<path d="M11.5004 18.35C11.3804 18.56 11.1104 18.63 10.8904 18.51C10.6804 18.39 10.6104 18.12 10.7304 17.9L12.5504 14.74C12.6704 14.53 12.9404 14.46 13.1604 14.58C13.3704 14.7 13.4404 14.97 13.3204 15.19L11.5004 18.35Z" fill="url(#paint2_linear_622_8154)"/>
<path d="M14.2699 17.14C14.1499 17.35 13.8799 17.42 13.6599 17.3C13.4499 17.18 13.3799 16.91 13.4999 16.69L14.6499 14.74C14.7699 14.53 15.0399 14.46 15.2599 14.58C15.4699 14.7 15.5399 14.97 15.4199 15.19L14.2699 17.14Z" fill="url(#paint3_linear_622_8154)"/>
<g style="mix-blend-mode:multiply">
<path d="M16.0505 7.00989C16.0005 7.00989 15.9505 7.00989 15.9005 7.00989C15.7905 5.12989 14.2305 3.63989 12.3205 3.63989C10.4105 3.63989 8.73047 5.24989 8.73047 7.22989C8.73047 7.33989 8.73047 7.45989 8.75047 7.56989C8.46047 7.48989 8.16047 7.44989 7.85047 7.44989C5.99047 7.44989 4.48047 8.95989 4.48047 10.8199C4.48047 12.6799 5.99047 14.1899 7.85047 14.1899H16.0505C18.0305 14.1899 19.6405 12.5799 19.6405 10.5999C19.6405 8.61989 18.0305 7.00989 16.0505 7.00989V7.00989Z" fill="#DADBDB"/>
</g>
<path d="M15.6003 6.56995C15.5503 6.56995 15.5003 6.56995 15.4503 6.56995C15.3403 4.68995 13.7803 3.19995 11.8703 3.19995C9.96027 3.19995 8.28027 4.80995 8.28027 6.78995C8.28027 6.89995 8.28027 7.01995 8.30027 7.12995C8.01027 7.04995 7.71027 7.00995 7.40027 7.00995C5.54027 7.00995 4.03027 8.51995 4.03027 10.38C4.03027 12.24 5.54027 13.75 7.40027 13.75H15.6003C17.5803 13.75 19.1903 12.14 19.1903 10.16C19.1903 8.17995 17.5803 6.56995 15.6003 6.56995V6.56995Z" fill="url(#paint4_linear_622_8154)"/>
<path style="mix-blend-mode:multiply" d="M12.1498 7.54004L14.8298 10.22L12.6398 11.71L11.5898 10.66L12.1498 7.54004Z" fill="url(#paint5_linear_622_8154)"/>
<path style="mix-blend-mode:multiply" d="M9.42043 9.28003L11.8104 11.66L10.2804 13.18L8.19043 11.09L9.49043 10.46L9.42043 9.28003Z" fill="url(#paint6_linear_622_8154)"/>
<g style="mix-blend-mode:multiply">
<path d="M16.02 14.13C16 14.04 15.94 13.96 15.85 13.91L15.14 13.5H15.48C15.65 13.5 15.79 13.36 15.79 13.19C15.79 13.02 15.65 12.88 15.48 12.88H14.18C14.18 12.88 14.12 12.88 14.09 12.89L12.75 12.11L14.09 11.33C14.09 11.33 14.15 11.34 14.18 11.34H15.48C15.65 11.34 15.79 11.2 15.79 11.03C15.79 10.86 15.65 10.72 15.48 10.72H15.14L15.85 10.31C16.02 10.21 16.08 9.99004 15.98 9.82004C15.92 9.71004 15.8 9.64004 15.67 9.64004C15.61 9.64004 15.55 9.66004 15.49 9.69004L14.78 10.1L14.95 9.81004C14.99 9.74004 15 9.65004 14.98 9.57004C14.96 9.49004 14.91 9.42004 14.84 9.38004C14.79 9.35004 14.74 9.34004 14.69 9.34004C14.58 9.34004 14.48 9.40004 14.42 9.50004L13.77 10.62C13.77 10.62 13.74 10.67 13.74 10.7L12.4 11.48V9.93004C12.4 9.93004 12.44 9.89004 12.46 9.86004L13.11 8.74004C13.2 8.59004 13.14 8.40004 13 8.32004C12.95 8.29004 12.9 8.28004 12.85 8.28004C12.74 8.28004 12.64 8.34004 12.58 8.43004L12.41 8.72004V7.90004C12.41 7.70004 12.25 7.54004 12.05 7.54004C11.85 7.54004 11.69 7.70004 11.69 7.90004V8.72004L11.52 8.43004C11.46 8.33004 11.36 8.28004 11.25 8.28004C11.2 8.28004 11.14 8.29004 11.1 8.32004C10.95 8.41004 10.9 8.60004 10.99 8.74004L11.64 9.86004C11.64 9.86004 11.67 9.91004 11.7 9.93004V11.48L10.36 10.7C10.36 10.7 10.34 10.64 10.33 10.62L9.67997 9.50004C9.62997 9.40004 9.51997 9.34004 9.40997 9.34004C9.35997 9.34004 9.29997 9.35004 9.25997 9.38004C9.18997 9.42004 9.13997 9.49004 9.11997 9.57004C9.09997 9.65004 9.10997 9.73004 9.14997 9.81004L9.31997 10.1L8.60997 9.69004C8.55997 9.66004 8.48997 9.64004 8.42997 9.64004C8.29997 9.64004 8.17997 9.71004 8.11997 9.82004C8.01997 9.99004 8.07997 10.21 8.24997 10.31L8.95997 10.72H8.61997C8.44997 10.72 8.30997 10.86 8.30997 11.03C8.30997 11.2 8.44997 11.34 8.61997 11.34H9.91997C9.91997 11.34 9.97997 11.34 10.01 11.33L11.35 12.11L10.01 12.89C10.01 12.89 9.94997 12.88 9.91997 12.88H8.61997C8.44997 12.88 8.30997 13.02 8.30997 13.19C8.30997 13.36 8.44997 13.5 8.61997 13.5H8.95997L8.24997 13.91C8.16997 13.96 8.10997 14.03 8.07997 14.13C8.05997 14.22 8.06997 14.32 8.11997 14.4C8.17997 14.51 8.29997 14.58 8.42997 14.58C8.48997 14.58 8.54997 14.56 8.60997 14.53L9.31997 14.12L9.14997 14.41C9.05997 14.56 9.11997 14.75 9.25997 14.83C9.30997 14.86 9.35997 14.87 9.40997 14.87C9.51997 14.87 9.61997 14.81 9.67997 14.72L10.33 13.6C10.33 13.6 10.36 13.55 10.36 13.52L11.7 12.74V14.29C11.7 14.29 11.66 14.33 11.64 14.36L10.99 15.48C10.9 15.63 10.96 15.82 11.1 15.9C11.15 15.93 11.2 15.94 11.25 15.94C11.36 15.94 11.46 15.88 11.52 15.78L11.69 15.49V16.3C11.69 16.5 11.85 16.66 12.05 16.66C12.25 16.66 12.41 16.5 12.41 16.3V15.49L12.58 15.78C12.64 15.88 12.74 15.94 12.85 15.94C12.9 15.94 12.96 15.93 13 15.9C13.15 15.81 13.2 15.62 13.11 15.48L12.46 14.36C12.46 14.36 12.43 14.31 12.4 14.29V12.74L13.74 13.52C13.74 13.52 13.76 13.58 13.77 13.6L14.42 14.72C14.47 14.82 14.58 14.87 14.69 14.87C14.74 14.87 14.8 14.86 14.84 14.83C14.91 14.79 14.96 14.72 14.98 14.64C15 14.56 14.99 14.48 14.95 14.4L14.78 14.11L15.49 14.52C15.54 14.55 15.61 14.57 15.67 14.57C15.8 14.57 15.92 14.5 15.98 14.39C16.03 14.31 16.04 14.21 16.02 14.12V14.13Z" fill="#DADBDB"/>
</g>
<path d="M15.8598 13.9601C15.8398 13.8701 15.7798 13.7901 15.6898 13.7401L14.9798 13.3301H15.3198C15.4898 13.3301 15.6298 13.1901 15.6298 13.0201C15.6298 12.8501 15.4898 12.7101 15.3198 12.7101H14.0198C14.0198 12.7101 13.9598 12.7101 13.9298 12.7201L12.5898 11.9401L13.9298 11.1601C13.9298 11.1601 13.9898 11.1701 14.0198 11.1701H15.3198C15.4898 11.1701 15.6298 11.0301 15.6298 10.8601C15.6298 10.6901 15.4898 10.5501 15.3198 10.5501H14.9798L15.6898 10.1401C15.8598 10.0401 15.9198 9.82011 15.8198 9.65011C15.7598 9.54011 15.6398 9.47011 15.5098 9.47011C15.4498 9.47011 15.3898 9.49011 15.3298 9.52011L14.6198 9.93011L14.7898 9.64011C14.8298 9.57011 14.8398 9.48011 14.8198 9.40011C14.7998 9.32011 14.7498 9.25011 14.6798 9.21011C14.6298 9.18011 14.5798 9.17011 14.5298 9.17011C14.4198 9.17011 14.3198 9.23011 14.2598 9.32011L13.6098 10.4401C13.6098 10.4401 13.5798 10.4901 13.5798 10.5201L12.2398 11.3001V9.75011C12.2398 9.75011 12.2798 9.71011 12.2998 9.68011L12.9498 8.56011C13.0398 8.41011 12.9798 8.22011 12.8398 8.14011C12.7898 8.11011 12.7398 8.10011 12.6898 8.10011C12.5798 8.10011 12.4798 8.16011 12.4198 8.25011L12.2498 8.54011V7.72011C12.2498 7.52011 12.0898 7.36011 11.8898 7.36011C11.6898 7.36011 11.5298 7.52011 11.5298 7.72011V8.54011L11.3598 8.25011C11.2998 8.15011 11.1998 8.10011 11.0898 8.10011C11.0398 8.10011 10.9798 8.11011 10.9398 8.14011C10.7898 8.23011 10.7398 8.42011 10.8298 8.56011L11.4798 9.68011C11.4798 9.68011 11.5098 9.73011 11.5398 9.75011V11.3001L10.1998 10.5201C10.1998 10.5201 10.1798 10.4601 10.1698 10.4401L9.51981 9.32011C9.45981 9.22011 9.35981 9.17011 9.24981 9.17011C9.19981 9.17011 9.13981 9.18011 9.09981 9.21011C9.02981 9.25011 8.97981 9.32011 8.95981 9.40011C8.93981 9.48011 8.94981 9.56011 8.98981 9.64011L9.15981 9.93011L8.44981 9.52011C8.39981 9.49011 8.32981 9.47011 8.26981 9.47011C8.13981 9.47011 8.01981 9.54011 7.95981 9.65011C7.85981 9.82011 7.91981 10.0401 8.08981 10.1401L8.79981 10.5501H8.45981C8.28981 10.5501 8.14981 10.6901 8.14981 10.8601C8.14981 11.0301 8.28981 11.1701 8.45981 11.1701H9.75981C9.75981 11.1701 9.81981 11.1701 9.84981 11.1601L11.1898 11.9401L9.84981 12.7201C9.84981 12.7201 9.78981 12.7101 9.75981 12.7101H8.45981C8.28981 12.7101 8.14981 12.8501 8.14981 13.0201C8.14981 13.1901 8.28981 13.3301 8.45981 13.3301H8.79981L8.08981 13.7401C8.00981 13.7901 7.94981 13.8601 7.91981 13.9601C7.89981 14.0501 7.90981 14.1501 7.95981 14.2301C8.01981 14.3401 8.13981 14.4101 8.26981 14.4101C8.32981 14.4101 8.38981 14.3901 8.44981 14.3601L9.15981 13.9501L8.98981 14.2401C8.89981 14.3901 8.95981 14.5801 9.09981 14.6601C9.14981 14.6901 9.19981 14.7001 9.24981 14.7001C9.35981 14.7001 9.45981 14.6401 9.51981 14.5401L10.1698 13.4201C10.1698 13.4201 10.1998 13.3701 10.1998 13.3401L11.5398 12.5601V14.1101C11.5398 14.1101 11.4998 14.1501 11.4798 14.1801L10.8298 15.3001C10.7398 15.4501 10.7998 15.6401 10.9398 15.7201C10.9898 15.7501 11.0398 15.7601 11.0898 15.7601C11.1998 15.7601 11.2998 15.7001 11.3598 15.6101L11.5298 15.3201V16.1301C11.5298 16.3301 11.6898 16.4901 11.8898 16.4901C12.0898 16.4901 12.2498 16.3301 12.2498 16.1301V15.3201L12.4198 15.6101C12.4798 15.7101 12.5798 15.7601 12.6898 15.7601C12.7398 15.7601 12.7998 15.7501 12.8398 15.7201C12.9898 15.6301 13.0398 15.4401 12.9498 15.3001L12.2998 14.1801C12.2998 14.1801 12.2698 14.1301 12.2398 14.1101V12.5601L13.5798 13.3401C13.5798 13.3401 13.5998 13.4001 13.6098 13.4201L14.2598 14.5401C14.3198 14.6401 14.4198 14.7001 14.5298 14.7001C14.5798 14.7001 14.6398 14.6901 14.6798 14.6601C14.7498 14.6201 14.7998 14.5501 14.8198 14.4701C14.8398 14.3901 14.8298 14.3101 14.7898 14.2401L14.6198 13.9501L15.3298 14.3601C15.3798 14.3901 15.4498 14.4101 15.5098 14.4101C15.6398 14.4101 15.7598 14.3401 15.8198 14.2301C15.8698 14.1501 15.8798 14.0501 15.8598 13.9601V13.9601Z" fill="url(#paint7_linear_622_8154)"/>
</g>
<defs>
<linearGradient id="paint0_linear_622_8154" x1="7.17416" y1="15.8675" x2="8.46702" y2="17.1682" gradientUnits="userSpaceOnUse">
<stop stop-color="#4CA8CF"/>
<stop offset="1" stop-color="#297BDD"/>
</linearGradient>
<linearGradient id="paint1_linear_622_8154" x1="8.53103" y1="16.6165" x2="10.2302" y2="18.3135" gradientUnits="userSpaceOnUse">
<stop stop-color="#4CA8CF"/>
<stop offset="1" stop-color="#297BDD"/>
</linearGradient>
<linearGradient id="paint2_linear_622_8154" x1="11.3767" y1="15.8688" x2="12.6696" y2="17.1695" gradientUnits="userSpaceOnUse">
<stop stop-color="#4CA8CF"/>
<stop offset="1" stop-color="#297BDD"/>
</linearGradient>
<linearGradient id="paint3_linear_622_8154" x1="13.9446" y1="15.4003" x2="14.972" y2="16.4207" gradientUnits="userSpaceOnUse">
<stop stop-color="#4CA8CF"/>
<stop offset="1" stop-color="#297BDD"/>
</linearGradient>
<linearGradient id="paint4_linear_622_8154" x1="7.20027" y1="5.80995" x2="16.1103" y2="14.72" gradientUnits="userSpaceOnUse">
<stop stop-color="white"/>
<stop offset="0.26" stop-color="#FAFAFA"/>
<stop offset="0.53" stop-color="#EEEEEE"/>
<stop offset="0.81" stop-color="#D9DADA"/>
<stop offset="1" stop-color="#C7C8C8"/>
</linearGradient>
<linearGradient id="paint5_linear_622_8154" x1="28.4322" y1="28.3999" x2="25.7339" y2="25.7016" gradientUnits="userSpaceOnUse">
<stop stop-color="white"/>
<stop offset="0.69" stop-color="#D9D9D9"/>
<stop offset="1" stop-color="#C7C8C8"/>
</linearGradient>
<linearGradient id="paint6_linear_622_8154" x1="-32.2711" y1="-7.30257" x2="-34.6131" y2="-9.64451" gradientUnits="userSpaceOnUse">
<stop stop-color="white"/>
<stop offset="0.69" stop-color="#D9D9D9"/>
<stop offset="1" stop-color="#C7C8C8"/>
</linearGradient>
<linearGradient id="paint7_linear_622_8154" x1="8.75981" y1="8.84011" x2="14.9998" y2="15.0801" gradientUnits="userSpaceOnUse">
<stop stop-color="#92DDFD"/>
<stop offset="0.34" stop-color="#7AC7ED"/>
<stop offset="0.74" stop-color="#64B3E0"/>
<stop offset="1" stop-color="#5CACDB"/>
</linearGradient>
<clipPath id="clip0_622_8154">
<rect width="23.64" height="23.64" fill="white"/>
</clipPath>
</defs>
</svg>
